<?xml version="1.0" encoding="utf-8"?>
<!-- Generator: Adobe Illustrator 21.0.2, SVG Export Plug-In . SVG Version: 6.00 Build 0)  -->
<svg version="1.1" id="Layer_1" xmlns="http://www.w3.org/2000/svg" xmlns:xlink="http://www.w3.org/1999/xlink" x="0px" y="0px"
	 viewBox="0 0 108.2 67.4" style="enable-background:new 0 0 108.2 67.4;" xml:space="preserve">
<style type="text/css">
	.st0{fill:#A8D5E2;}
	.st1{fill:#FFFFFF;}
</style>
<path id="blue" class="st0" d="M56.6,16.6c-0.1-0.1-0.2-0.3-0.3-0.4c0,0,0,0,0,0c0.1,0.2,0.3,0.3,0.4,0.5c0.8,1,1.6,2.3,0.7,3.4
	c0,0-0.1,0-0.1,0c0-0.7,0.1-1.5-0.1-2.2C57.1,17.4,56.9,17,56.6,16.6z M48.4,10.7c0.1,0,0.1-0.1,0.1-0.1c-1.1-1.4-3.5-3.3-2.1-5.3
	c0,0,0,0,0,0C44.4,6.9,46.5,10.2,48.4,10.7z M52.2,8.6c0,0.1,0.1,0.1,0.1,0c0.4-0.9,0.4-2-0.2-2.8c-0.6-0.8-1.8-1-2.8-1.1
	c0,0,0,0,0,0c0.8,0.3,1.7,0.6,2.3,1.2C52.3,6.6,52.3,7.7,52.2,8.6z M43.8,18C43.7,18,43.8,18.1,43.8,18c1-0.1,1.8-0.4,2.6-1.1
	c0.8-0.6,1.1-1.3,1.4-2.3c0,0,0-0.1-0.1,0C46.7,16.1,45.4,17.5,43.8,18z M46,10.3C46,10.3,46.1,10.2,46,10.3c-1.3-1.5-2.2-4-0.5-5.5
	c0,0,0,0,0,0C43.1,6.1,43.9,9,46,10.3z M46.8,18.1c-0.9,0.9-1.6,1.4-2.9,1.1c0,0,0,0,0,0c1.2,0.7,2.1,0.4,3.1-0.5
	c0.8-0.8,2.1-1.9,1.7-3.1c0-0.1-0.1-0.1-0.1,0C48.6,16.7,47.5,17.4,46.8,18.1z M53.9,19.3C53.9,19.3,53.9,19.3,53.9,19.3
	c-0.2-0.6-0.6-0.9-0.8-1.5c-0.2-0.5-0.2-1-0.3-1.5c0,0,0,0,0,0C52.4,17.3,52.9,18.9,53.9,19.3z M56.1,18.9
	C56.1,19,56.1,19,56.1,18.9c1.2-0.6,0-2.1-0.8-2.9c-0.2-0.2-0.3-0.3-0.4-0.4c0,0,0,0,0,0c0.1,0.1,0.1,0.2,0.2,0.3
	c0.2,0.4,0.5,0.9,0.7,1.3C56.2,17.7,56.1,18.2,56.1,18.9z M107.2,37.2c0,16.1-23.8,29.2-53.1,29.2C24.8,66.4,1,53.3,1,37.2
	C1,23.3,18.6,11.7,42.2,8.7v0C42.1,8.4,42,8,42,7.7c0,0,0-0.1,0-0.1c0-0.3-0.1-0.7,0-1c0-0.2,0-0.5,0-0.7c0.1-0.7,0.2-1.5,0.6-2.1
	C43,3,44.1,2.5,45.3,2.5c0,0,0,0,0,0l0.1,0c0.1,0,0.1,0,0.2,0c0,0,0,0,0,0c0,0,0.1,0,0.1,0c0.1,0,0.2,0,0.2,0c0,0,0.1,0,0.1,0
	c0.1,0,0.2,0.1,0.2,0.1c0,0,0.1,0,0.1,0.1c0.1,0.1,0.2,0.2,0.3,0.3C47,3.2,47,3.4,47,3.6c0,0,0,0,0.1,0c0.2,0,0.3-0.2,0.3-0.2
	c0.1-0.1,0.1-0.2,0.2-0.3c0.2-0.4,0.4-0.9,1-1.2c0.6-0.3,1.3-0.5,1.9-0.7c0.2,0,0.4-0.1,0.5-0.1c0.1,0,0.1,0,0.2,0
	c0.1,0,0.2,0,0.3,0c0,0,0,0,0,0c0.2,0,0.5,0,0.7,0.1c0.1,0,0.1,0,0.2,0c0.2,0.1,0.4,0.1,0.6,0.2c0,0,0,0,0,0
	c0.2,0.1,0.4,0.2,0.6,0.3c0,0,0.1,0.1,0.1,0.1c0.2,0.1,0.4,0.3,0.5,0.5c0.1,0.1,0.2,0.3,0.3,0.5c0,0,0,0.1,0.1,0.1
	C54.8,3,54.9,3.1,55,3.2c0,0.1,0,0.1,0.1,0.2c0.1,0.1,0.1,0.2,0.1,0.4c0,0.1,0,0.1,0,0.2c0,0.1,0.1,0.2,0.1,0.4c0,0.1,0,0.1,0,0.2
	c0,0.1,0.1,0.2,0.1,0.3c0,0.1,0,0.1,0,0.2c0,0.1,0,0.2,0,0.2c0,0.1,0,0.1,0,0.2c0,0,0,0.1,0,0.1c0,0.1,0,0.2,0,0.2c0,0,0,0,0,0
	c0.6-0.5,1.2-0.9,1.9-1.2c0,0,0,0,0,0c0.2-0.1,0.3-0.1,0.5-0.2c0,0,0.1,0,0.1,0c0.1,0,0.2-0.1,0.4-0.1c0.1,0,0.1,0,0.2,0
	c0.1,0,0.2,0,0.3-0.1c0.1,0,0.1,0,0.2,0c0.1,0,0.2,0,0.3,0c0,0,0.1,0,0.1,0c0,0,0,0,0.1,0c0.1,0,0.2,0,0.3,0c0.1,0,0.1,0,0.2,0
	c0.2,0,0.3,0.1,0.5,0.1c0,0,0,0,0,0c0.5,0.1,1,0.4,1.5,0.7c0.7,0.5,1.3,1.2,1.5,2c0,0.1,0.1,0.2,0.1,0.3c0,0,0,0,0,0
	c0.1,0.3,0.1,0.7,0,1.1l0,0c1.6,0.2,3.2,0.3,4.7,0.6c0,0,0.1,0,0.1,0c0.1-0.1,0.2-0.2,0.4-0.3c0,0,0,0,0.1,0
	c0.1-0.1,0.2-0.2,0.4-0.3c0,0,0.1-0.1,0.1-0.1c0.1-0.1,0.2-0.1,0.3-0.2C69.8,8,69.9,8,70,7.9c0.1-0.1,0.2-0.1,0.3-0.2
	c0.1,0,0.2-0.1,0.3-0.1c0.1,0,0.2-0.1,0.3-0.1c0.1,0,0.2-0.1,0.4-0.1c0.1,0,0.2-0.1,0.3-0.1c0.1,0,0.3-0.1,0.4-0.1
	c0.1,0,0.2,0,0.2,0c0.2,0,0.5-0.1,0.7-0.1c0,0,0,0,0,0h0c0,0,0.1,0,0.1,0c0.1,0,0.1,0,0.2,0c0.1,0,0.1,0,0.2,0c0.1,0,0.2,0,0.3,0.1
	c0.1,0,0.1,0,0.2,0c0.1,0,0.2,0.1,0.3,0.1c0,0,0.1,0,0.1,0.1c0.1,0.1,0.2,0.2,0.3,0.3c0.2,0.3,0.5,0.7,0.4,1.4
	c0,0.2-0.1,0.4-0.1,0.6c0,0.2-0.1,0.3-0.2,0.5l0,0C93.8,14.7,107.2,25,107.2,37.2z M37.9,35.4V29c-0.5,0-0.9,0.1-1.2,0.4
	c-0.3,0.3-0.5,0.6-0.5,1v3.1c0,0.4-0.2,0.8-0.7,1.2c-0.4,0.5-0.8,0.7-1.1,0.7c-0.3,0-0.5-0.1-0.6-0.3c-0.1-0.2-0.1-0.5-0.1-0.9v-0.5
	v-3.4c0-0.3-0.1-0.6-0.2-0.9c-0.1-0.3-0.3-0.4-0.7-0.4c-0.4,0-0.7,0.1-1,0.3c-0.3,0.2-0.6,0.5-0.9,1c0.3-0.2,0.6-0.3,0.8-0.3
	c0.2,0,0.3,0.1,0.3,0.2c0,0.1,0.1,0.3,0.1,0.5v4.2c0,0.6,0.1,1.1,0.3,1.5c0.2,0.4,0.5,0.6,0.9,0.6c0.5,0,1-0.2,1.5-0.5
	c0.5-0.4,1-0.8,1.6-1.4v0.8c0,0.4,0.1,0.7,0.2,0.9c0.1,0.2,0.4,0.3,0.7,0.3c0.5,0,0.9-0.3,1.5-0.8c0.5-0.5,0.9-1,1.2-1.4
	c-0.3,0.3-0.6,0.5-0.9,0.7c-0.2,0.1-0.4,0.2-0.6,0.2c-0.1,0-0.2,0-0.3-0.1C38,35.5,37.9,35.4,37.9,35.4z M42.2,31.9v-0.8
	c0-0.8,0-1.3-0.1-1.7C42,29.1,41.8,29,41.4,29c-0.2,0-0.6,0.2-1.1,0.7c-0.5,0.5-0.8,0.9-1,1.3c0.2-0.2,0.3-0.3,0.5-0.4
	c0.1-0.1,0.3-0.1,0.4-0.1c0.2,0,0.4,0.1,0.4,0.4v5.9c0.4,0,0.7-0.2,0.9-0.4c0.3-0.2,0.5-0.4,0.7-0.6v-3.4c0.3-0.4,0.6-0.8,1-1.3
	c0.3-0.4,0.6-0.6,0.9-0.6c0.2,0,0.4,0.1,0.5,0.3c0.1,0.2,0.1,0.4,0.1,0.6c0,0.2,0,0.5-0.1,0.7c-0.1,0.3-0.1,0.5-0.2,0.6
	c0.4-0.4,0.9-0.9,1.4-1.4c0.5-0.5,0.7-1,0.7-1.4c0-0.3-0.1-0.6-0.3-0.9c-0.2-0.2-0.4-0.4-0.8-0.4c-0.6,0-1.2,0.3-1.8,1
	C43.1,30.7,42.7,31.3,42.2,31.9z M53,21.4c-1,0.2-1.7-0.3-2.3-1.1c-0.5-0.7-0.8-1.3-0.8-2c-0.2,0.3-0.4,0.7-0.6,1
	c-0.2,1.4-0.1,3,0.9,3.7c0.4,0.2,0.7,0.2,1.3,0l0.1,0c0.6-0.2,1.2-0.3,1.9-0.5c0.5-0.2,0.8-0.3,0.9-0.4c0,0,0,0-0.1,0
	c-0.2-0.2-0.5-0.4-0.6-0.7c-0.2-0.5,0-0.9,0.1-1.1c0.4-0.6,1.2-0.8,1.5-0.8c0.9-0.1,1.3,0.5,1.6,0.9c0.1,0.2,0.3,0.3,0.4,0.4
	c0.2,0.1,0.3,0.1,0.5,0.1c0.6-0.3,1.3-1.5,1.4-2.1c0.1-0.6-0.3-1.2-0.8-1.6c-0.4-0.4-1-0.7-1.4-1c-0.1-0.1-0.2-0.1-0.3-0.2
	c-0.1,0-0.1-0.1-0.2-0.1c-0.4-0.2-0.8-0.5-1.1-0.8c-0.3-0.2-0.7-0.5-1-0.7c0,0-0.1,0.1-0.1,0.1c-0.1,0.2-0.3,0.3-0.5,0.4
	C53.6,15,53.4,15,53.2,15c0.7,0.6,1.4,1.2,1.8,2c0.2,0.5,0.4,1.3-0.1,1.7c0,0-0.1,0-0.1-0.1c0-0.3,0.1-0.7,0.1-1
	c0-0.4-0.2-0.8-0.4-1.1c-0.4-0.5-0.8-1-1.2-1.5c0,0,0,0,0,0c0,0,0,0-0.1,0c-0.1,0-0.2,0-0.4-0.1c-0.2,0.5-0.7,0.9-1.3,0.9
	c-0.1,0-0.3,0-0.4-0.1c-0.2,0.5-0.3,1-0.6,1.5c-0.1,0.2-0.3,0.5-0.4,0.7c0,0,0,0,0,0c0.1,0.8,0.5,1.5,1.1,2.1
	C51.6,20.6,52.3,21,53,21.4C53,21.4,53,21.4,53,21.4z M54,12.5c0.1-0.1,0.1-0.2,0.1-0.4c0-0.1,0-0.2-0.1-0.3c0-0.1-0.1-0.2-0.1-0.3
	c0,0,0,0,0-0.1c-0.1-0.1-0.3-0.2-0.5-0.2c0,0,0,0,0,0c0,0-0.1,0-0.1,0c-0.1,0-0.1,0-0.2,0c-0.1,0-0.2,0.1-0.3,0.2c0,0,0,0,0,0
	c-0.1,0.1-0.2,0.2-0.2,0.3c0,0.1,0,0.1,0,0.2c0,0,0.1,0.1,0.1,0.2c0,0,0,0,0,0c0,0,0,0.1,0,0.1c0,0,0,0,0,0c0,0,0,0.1,0,0.1
	c0,0,0,0,0,0c0,0,0,0.1,0,0.1c0,0.1,0,0.1,0,0.2c0,0,0.1,0.1,0.1,0.1c0,0,0.1,0.1,0.1,0.1c0,0,0.1,0,0.1,0c0.1,0,0.1,0,0.2,0
	c0,0,0.1,0,0.1,0c0.1,0,0.1,0,0.2,0c0.1,0,0.2-0.1,0.3-0.2c0,0,0,0,0,0C53.9,12.7,54,12.6,54,12.5z M53.9,13.5
	C53.9,13.5,53.9,13.5,53.9,13.5C53.9,13.4,53.9,13.4,53.9,13.5C53.9,13.4,53.9,13.4,53.9,13.5C53.9,13.4,53.9,13.4,53.9,13.5
	c-0.2,0-0.4,0.1-0.6,0.1c-0.1,0-0.1,0-0.2,0c0,0-0.1,0-0.1,0c-0.1,0-0.2-0.1-0.3-0.1c0,0,0,0,0,0c0,0-0.1,0-0.1,0c0,0,0,0,0,0
	c0,0,0,0.1-0.1,0.1c0,0,0,0,0,0c0,0,0.1,0.1,0.1,0.1c0.1,0.1,0.1,0.2,0.2,0.3c0,0,0,0,0,0c0,0.1,0.1,0.2,0.1,0.4
	c0.1,0,0.2,0.1,0.3,0.1c0,0,0.1,0,0.1,0c0.2,0,0.4-0.1,0.5-0.3c0,0,0,0,0-0.1c0.1-0.1,0.2-0.3,0.2-0.5
	C53.9,13.6,53.9,13.5,53.9,13.5z M52.7,10.8c-0.1-0.1-0.1-0.2-0.2-0.3c-0.1-0.1-0.3-0.2-0.5-0.2c0,0,0,0,0,0c-0.4,0-0.7,0.3-0.8,0.7
	c0,0.1,0.1,0.2,0.1,0.3c0,0,0,0,0,0c0.1,0,0.1,0,0.2,0c0.2,0,0.3,0.1,0.5,0.2c0.1-0.1,0.1-0.2,0.2-0.3
	C52.4,11.1,52.5,10.9,52.7,10.8z M52.2,14.3c0,0,0-0.1,0-0.1c0-0.1-0.1-0.2-0.1-0.2c0,0,0,0,0,0c-0.1,0.1-0.2,0.1-0.3,0.1
	c-0.1,0-0.2,0.1-0.3,0.1c-0.1,0-0.1,0-0.2,0c-0.1,0-0.1,0-0.2,0c-0.1,0-0.1,0-0.2,0c0,0,0,0-0.1,0c0,0,0,0-0.1,0c0,0,0,0,0,0
	c0,0-0.1,0-0.1,0c0,0,0,0,0,0c0,0.1,0,0.1-0.1,0.2c0,0,0,0.1,0,0.1c0,0,0,0,0,0c0,0.2,0.1,0.3,0.1,0.4c0,0,0,0.1,0.1,0.1
	c0.1,0.1,0.3,0.2,0.4,0.2c0.1,0,0.1,0,0.2,0c0.4,0,0.7-0.2,0.8-0.6c0-0.1,0-0.1,0-0.2c0,0,0-0.1,0-0.1
	C52.3,14.4,52.3,14.3,52.2,14.3z M51.2,12C51.1,12,51.1,12,51.2,12C51.1,12,51,12,51,12c0,0,0,0,0,0c0,0,0,0-0.1,0
	c-0.1,0-0.1,0.1-0.2,0.1c-0.1,0.1-0.1,0.2-0.2,0.3c0,0,0,0,0,0c0,0.1,0,0.1,0,0.2c0,0,0,0,0,0.1c0,0,0,0,0,0c0,0,0,0.1,0,0.1
	c0,0,0,0,0,0c0,0,0,0.1,0,0.1c0,0,0,0,0,0c0,0.1,0,0.1,0.1,0.2c0,0,0,0,0,0.1c0,0.1,0.1,0.1,0.1,0.1c0,0,0,0,0,0c0,0,0.1,0,0.1,0.1
	c0,0,0,0,0,0c0,0,0,0,0,0c0,0,0,0,0,0c0.1,0.1,0.2,0.1,0.4,0.1c0,0,0,0,0,0c0.1,0,0.1,0,0.2,0c0.1,0,0.1,0,0.2-0.1
	c0.1,0,0.1-0.1,0.2-0.1c0,0,0.1-0.1,0.1-0.1c0,0,0,0,0-0.1c0,0,0,0,0-0.1c0,0,0,0,0,0c0-0.1,0.1-0.1,0.1-0.2c0,0,0-0.1,0-0.1
	c0,0,0-0.1,0-0.1c0,0,0,0,0,0c0,0,0,0,0,0c0,0,0,0,0,0c0-0.1,0-0.2-0.1-0.2c0,0,0,0,0,0c0,0-0.1-0.1-0.1-0.1c0,0,0,0,0,0
	c-0.1-0.1-0.1-0.1-0.2-0.1c-0.1,0-0.2-0.1-0.3-0.1c0,0-0.1,0-0.1,0c0,0,0,0,0,0C51.2,11.9,51.2,12,51.2,12z M50.7,11.5
	c0-0.1-0.1-0.2-0.1-0.3c-0.1-0.2-0.4-0.4-0.7-0.4c-0.4,0-0.7,0.2-0.8,0.6c0,0.1-0.1,0.2-0.1,0.2c0,0.1,0,0.3,0.1,0.4
	c0,0,0,0.1,0.1,0.1c0,0,0.1,0,0.1,0c0.1,0,0.1,0,0.2,0c0.2,0,0.3,0,0.5,0.1c0.1-0.1,0.1-0.2,0.2-0.3C50.3,11.7,50.5,11.6,50.7,11.5
	C50.6,11.5,50.7,11.5,50.7,11.5z M48.8,13.1c-0.1,0.1-0.1,0.2-0.1,0.4c0,0.1,0,0.2,0,0.2c0.1,0.3,0.4,0.6,0.8,0.6
	c0.1,0,0.2,0,0.3-0.1c0.1,0,0.2-0.1,0.2-0.1c0,0,0-0.1,0-0.1c0-0.1,0.1-0.2,0.2-0.4c0-0.1-0.1-0.1-0.1-0.2c0,0,0,0,0-0.1
	c-0.1-0.1-0.1-0.2-0.1-0.3c0,0,0,0,0,0c0-0.1,0-0.2,0-0.2c0,0,0,0,0,0v0c0,0,0,0,0,0c-0.1-0.1-0.2-0.1-0.3-0.1c0,0,0,0,0,0
	c0,0-0.1,0-0.1,0c0,0-0.1,0-0.1,0c-0.1,0-0.1,0.1-0.2,0.1C49,12.9,48.9,13,48.8,13.1z M57.1,35.4v-9.2c0-0.2,0.3-0.3,0.9-0.3
	c0.6,0,1.1-0.4,1.5-1.1h-1.6c-0.8,0-1.4,0.3-1.8,0.9c-0.5,0.6-0.7,1.3-0.7,2.2v7.5c0,0.5,0.1,0.8,0.2,1.1c0.2,0.3,0.4,0.4,0.8,0.4
	c0.4,0,0.8-0.2,1.3-0.6c0.5-0.4,0.8-0.9,1.1-1.4c-0.3,0.3-0.6,0.5-0.8,0.6c-0.2,0.2-0.4,0.2-0.6,0.2C57.2,35.7,57.1,35.6,57.1,35.4z
	 M47.9,30.4c-0.9,0.9-1.4,2.2-1.4,3.8c0,0.8,0.2,1.4,0.5,1.9c0.3,0.5,0.7,0.7,1.1,0.7c0.4,0,0.8-0.2,1.3-0.7c0.5-0.4,1.1-1,1.9-1.8
	v1c0,0.4,0.2,0.8,0.5,1.1c0.3,0.3,0.6,0.4,0.7,0.4c0.3,0,0.7-0.2,1.1-0.5c0.4-0.3,0.6-0.6,0.8-1c-0.3,0.2-0.6,0.3-0.7,0.4
	c-0.2,0.1-0.3,0.1-0.4,0.1c-0.1,0-0.2-0.1-0.2-0.2v-6.7h-1.6C49.9,29.1,48.8,29.5,47.9,30.4z M42.5,46.2c-1.2-0.1-2.3-0.1-3.5-0.2
	c-1.2,0-2.3,0-3.5,0c-2.3,0-4.6,0.1-6.9,0.3c-2.3,0.2-4.6,0.5-6.9,1.3c-0.6,0.2-1.1,0.4-1.7,0.6c-0.3,0.1-0.6,0.3-0.8,0.4
	c-0.3,0.2-0.6,0.3-0.8,0.6c-0.1,0.1-0.3,0.3-0.4,0.6c0,0.1-0.1,0.3,0,0.5c0,0.2,0.1,0.3,0.2,0.5c0.2,0.3,0.3,0.4,0.5,0.5
	c0.2,0.1,0.3,0.2,0.5,0.3c0.3,0.1,0.6,0.2,0.9,0.3c0.2,0,0.3,0.1,0.5,0.1c0.2,0,0.3,0,0.5,0.1c0.6,0.1,1.2,0.1,1.8,0.1
	c0.6,0,1.2,0,1.7,0c1.2,0,2.3,0,3.5,0c0,0,0,0,0,0c0.4,0,0.8-0.4,0.7-0.8c0-0.4-0.4-0.8-0.8-0.7h0c-1.1,0.1-2.3,0.1-3.4,0.1
	c-0.6,0-1.1,0-1.7,0c-0.6,0-1.1,0-1.7,0c-0.5,0-1-0.1-1.5-0.3c-0.1,0-0.2-0.1-0.3-0.1c0,0,0,0,0,0c0,0,0,0,0,0
	c0.1-0.1,0.3-0.3,0.5-0.4c0.2-0.1,0.5-0.3,0.7-0.4c0.5-0.2,1-0.4,1.5-0.6c2.1-0.7,4.4-1.1,6.6-1.3c2.3-0.2,4.6-0.3,6.8-0.4
	c1.1,0,2.3,0,3.4,0c1.1,0,2.3,0,3.4,0.1c2.3,0.1,4.6,0.4,6.8,0.7c1.1,0.2,2.2,0.4,3.4,0.7c0.6,0.1,1.1,0.3,1.7,0.4
	c-0.5,0.2-1,0.4-1.5,0.6c-1.5,0.6-3,1.2-4.4,2c-1-0.2-2.1-0.3-3.2-0.4c-1.1-0.1-2.3-0.2-3.5-0.2c-1.2,0-2.3,0.1-3.5,0.4
	c-0.6,0.2-1.1,0.3-1.7,0.7c-0.3,0.2-0.5,0.4-0.7,0.7c-0.1,0.2-0.1,0.4,0,0.6c0.1,0.2,0.2,0.3,0.3,0.5c0.2,0.3,0.5,0.4,0.8,0.6
	c0.3,0.1,0.5,0.3,0.8,0.4c0.6,0.2,1.1,0.3,1.7,0.5c1,0.2,2,0.4,3.1,0.5c-0.1,0.2-0.1,0.3-0.2,0.5c-0.1,0.4,0,0.8,0.2,1.2
	c0.2,0.3,0.5,0.6,0.7,0.8c0.6,0.4,1.1,0.6,1.7,0.8c0.6,0.2,1.2,0.3,1.8,0.4c1.2,0.2,2.3,0.3,3.5,0.3c2.3,0.1,4.6,0,7-0.1
	c2.3-0.2,4.6-0.4,6.9-0.9c2.3-0.4,4.6-1,6.8-1.8c0.3-0.1,0.6-0.2,0.9-0.3c1.3,0.1,2.7,0.2,4,0.2c2.3,0,4.6-0.2,6.9-0.5
	c1.1-0.2,2.3-0.5,3.4-0.8c0.6-0.2,1.1-0.4,1.6-0.7c0.5-0.3,1-0.6,1.5-1c0.2-0.2,0.4-0.4,0.6-0.7c0.2-0.3,0.3-0.6,0.3-0.9
	c0.1-0.3,0-0.7-0.1-1c-0.1-0.3-0.2-0.6-0.4-0.8c-0.3-0.5-0.8-1-1.2-1.3c-0.5-0.4-1-0.6-1.5-0.9c-1.1-0.5-2.2-0.8-3.4-1
	c-1.1-0.2-2.3-0.4-3.4-0.5c-2.3-0.2-4.6-0.2-6.9-0.2c-2.3,0-4.6,0.2-6.9,0.3c-2.3,0.1-4.6,0.4-6.9,1c-1.3,0.3-2.6,0.7-3.9,1.1
	c-0.9-0.3-1.8-0.5-2.7-0.8c-1.1-0.3-2.3-0.5-3.4-0.7C47.1,46.7,44.8,46.4,42.5,46.2z M71.1,31.3v-4.2c0-0.5,0.2-0.9,0.5-1.2
	c0.3-0.3,0.8-0.6,1.3-0.8h-3.4h-0.8c0,0-1.1,0-1.5,0c-1.4,0-3,0.5-4,1.2c-1.2,0.8-1.8,1.9-1.8,3.5c0,1.2,0.4,2.2,1.2,3.1
	c0.8,0.8,2,1.2,3.5,1.2c-1.4-0.6-2.4-1.3-2.9-2.1c-0.6-0.8-0.9-1.8-0.9-2.8c0-1.1,0.4-1.9,1.3-2.6c0.8-0.6,2.7-1.2,4.5-0.9
	c0.2,0,0.4,0.3,0.4,0.4c0.2,0.2,0.3,0.6,0.3,1v7.8c0,0.5-0.2,0.9-0.5,1.3c-0.3,0.4-0.8,0.7-1.2,0.9h5.7c-0.5-0.2-0.9-0.5-1.2-0.8
	c-0.3-0.3-0.4-1.6-0.4-2.4c0-1.1,4-4.2,4.9-4.3v5.5c0,0.5-0.1,0.8-0.4,1.2c-0.3,0.3-0.7,0.6-1.2,0.8H80c-0.5-0.2-0.9-0.5-1.2-0.8
	c-0.3-0.3-0.5-0.7-0.5-1.2l0-5.8c0.9,0,1.4,0.4,1.8,0.9c-0.1-0.6-1-1.2-1.8-1.2v-1.5c0-0.4,0.1-0.8,0.3-1.2c0.2-0.4,0.6-0.8,1.4-1
	h-5.7c0.7,0.3,1.2,0.6,1.4,0.9c0.2,0.3,0.3,0.7,0.3,1.3v1.6C74.5,29.2,72,30.6,71.1,31.3z M79.1,40.1V42c0,0.1,0,0.1,0,0.2
	c0,0-0.1,0.1-0.1,0.1c0,0-0.1,0-0.2,0c-0.1,0-0.2,0-0.3,0v0.2h1.8v-0.2c-0.1,0-0.1,0-0.2,0c-0.1,0-0.2,0-0.2-0.1
	c-0.1,0-0.1-0.1-0.1-0.1s0-0.1,0-0.2v-1.6c0-0.1,0-0.3,0-0.4c0-0.2,0-0.3,0-0.4h-0.2c-0.1,0.1-0.2,0.2-0.3,0.2
	c-0.2,0.1-0.3,0.1-0.5,0.1h-0.1v0.2H79.1z M74.8,41.1h1.8v-0.2c0-0.2,0-0.3-0.1-0.4c0-0.1-0.1-0.3-0.2-0.4c-0.1-0.1-0.2-0.2-0.3-0.3
	c-0.1-0.1-0.3-0.1-0.5-0.1c-0.2,0-0.4,0-0.5,0.1c-0.2,0.1-0.3,0.2-0.4,0.3c-0.1,0.1-0.2,0.3-0.2,0.4c-0.1,0.2-0.1,0.3-0.1,0.5
	c0,0.2,0,0.4,0.1,0.5c0.1,0.2,0.1,0.3,0.2,0.5c0.1,0.1,0.2,0.2,0.4,0.3c0.2,0.1,0.3,0.1,0.6,0.1c0.2,0,0.5-0.1,0.6-0.2
	c0.2-0.1,0.3-0.3,0.4-0.5l-0.2-0.1c-0.1,0.2-0.2,0.3-0.3,0.4c-0.1,0.1-0.3,0.1-0.4,0.1c-0.2,0-0.3,0-0.4-0.1
	c-0.1-0.1-0.2-0.1-0.3-0.2c-0.1-0.1-0.1-0.2-0.2-0.4C74.8,41.4,74.8,41.3,74.8,41.1z M73.3,40.1c0,0,0,0.1,0,0.2c0,0.1,0,0.2,0,0.2
	c0,0.1,0,0.1,0.1,0.2s0.1,0.1,0.2,0.1c0.1,0,0.2,0,0.2-0.1c0-0.1,0.1-0.1,0.1-0.2c0-0.2-0.1-0.4-0.2-0.5c-0.2-0.1-0.4-0.2-0.6-0.2
	c-0.2,0-0.4,0-0.5,0.1c-0.2,0.1-0.3,0.2-0.4,0.3c-0.1,0.1-0.2,0.3-0.3,0.4c-0.1,0.2-0.1,0.3-0.1,0.5c0,0.4,0.1,0.8,0.3,1
	c0.2,0.3,0.5,0.4,0.9,0.4c0.2,0,0.4-0.1,0.6-0.2c0.2-0.1,0.3-0.3,0.5-0.5l-0.2-0.1c-0.1,0.2-0.2,0.3-0.3,0.4
	c-0.1,0.1-0.3,0.1-0.4,0.1c-0.2,0-0.4-0.1-0.6-0.3c-0.1-0.2-0.2-0.5-0.2-0.8c0-0.2,0-0.4,0.1-0.5c0-0.2,0.1-0.3,0.2-0.4
	c0.1-0.1,0.1-0.2,0.2-0.2c0.1,0,0.2-0.1,0.2-0.1c0.1,0,0.1,0,0.2,0C73.3,40,73.3,40.1,73.3,40.1z M70.5,40.7V42c0,0.1,0,0.1,0,0.2
	c0,0-0.1,0.1-0.1,0.1c0,0-0.1,0-0.1,0c0,0-0.1,0-0.1,0v0.2h1.3v-0.2c-0.1,0-0.1,0-0.1,0c0,0-0.1,0-0.1,0c-0.1,0-0.1-0.1-0.1-0.1
	c0,0,0-0.1,0-0.2v-1.4c0-0.3-0.1-0.5-0.2-0.6c-0.1-0.2-0.3-0.2-0.6-0.2c-0.1,0-0.2,0-0.3,0c-0.1,0-0.2,0.1-0.2,0.1
	c-0.1,0-0.1,0.1-0.2,0.1c-0.1,0.1-0.1,0.1-0.2,0.2h0v-0.4l0,0l-0.9,0.1V40c0.1,0,0.1,0,0.2,0c0,0,0.1,0,0.1,0c0,0,0.1,0.1,0.1,0.1
	c0,0.1,0,0.1,0,0.2V42c0,0.1,0,0.1,0,0.2c0,0-0.1,0.1-0.1,0.1c0,0-0.1,0-0.1,0c0,0-0.1,0-0.1,0v0.2h1.3v-0.2c0,0-0.1,0-0.1,0
	c0,0-0.1,0-0.1,0c-0.1,0-0.1-0.1-0.1-0.1s0-0.1,0-0.2v-1.5c0,0,0-0.1,0.1-0.1c0,0,0.1-0.1,0.1-0.1c0.1,0,0.1-0.1,0.2-0.1
	c0.1,0,0.2,0,0.3,0c0.1,0,0.2,0.1,0.3,0.2C70.5,40.3,70.5,40.5,70.5,40.7z M67.3,40.4V42c0,0.1,0,0.1,0,0.2c0,0-0.1,0.1-0.1,0.1
	c0,0-0.1,0-0.1,0c0,0-0.1,0-0.1,0v0.2h1.3v-0.2c0,0-0.1,0-0.1,0c0,0-0.1,0-0.1,0c-0.1,0-0.1,0-0.1-0.1c0,0,0-0.1,0-0.2v-2.2l0,0
	l-0.9,0.1V40c0.1,0,0.1,0,0.2,0c0.1,0,0.1,0,0.1,0.1c0,0,0.1,0.1,0.1,0.1C67.3,40.3,67.3,40.3,67.3,40.4z M67.2,39
	c0.1,0.1,0.1,0.1,0.2,0.1c0.1,0,0.2,0,0.2-0.1c0.1-0.1,0.1-0.2,0.1-0.3c0-0.1,0-0.2-0.1-0.2c-0.1-0.1-0.1-0.1-0.3-0.1
	c-0.1,0-0.2,0-0.2,0.1c-0.1,0.1-0.1,0.2-0.1,0.3C67.1,38.9,67.2,39,67.2,39z M65.9,41.7c0,0.1,0,0.2,0,0.3c0,0.1-0.1,0.1-0.1,0.2
	c-0.1,0.1-0.1,0.1-0.2,0.1c-0.1,0-0.2,0-0.3,0c-0.2,0-0.3,0-0.4-0.1c-0.1-0.1-0.2-0.1-0.3-0.3c-0.1-0.1-0.2-0.2-0.2-0.4
	c-0.1-0.1-0.1-0.3-0.2-0.4h-0.2l0,1.3h0.2l0.1-0.2c0.1,0.1,0.3,0.1,0.4,0.2c0.2,0.1,0.3,0.1,0.5,0.1c0.4,0,0.7-0.1,0.9-0.3
	c0.2-0.2,0.4-0.5,0.4-0.8c0-0.1,0-0.3-0.1-0.4c0-0.1-0.1-0.2-0.2-0.3c-0.1-0.1-0.2-0.1-0.3-0.2c-0.1-0.1-0.2-0.1-0.3-0.2
	c-0.1-0.1-0.2-0.1-0.4-0.1c-0.1,0-0.3-0.1-0.4-0.2c-0.1-0.1-0.3-0.2-0.3-0.3c-0.1-0.1-0.1-0.2-0.1-0.4c0-0.2,0.1-0.3,0.2-0.4
	c0.1-0.1,0.3-0.2,0.4-0.2c0.2,0,0.3,0,0.4,0.1c0.1,0.1,0.2,0.1,0.3,0.2c0.1,0.1,0.1,0.2,0.2,0.4c0,0.1,0.1,0.3,0.1,0.4h0.2l0-1.3
	h-0.2L66,38.9c-0.1-0.1-0.2-0.1-0.4-0.2c-0.1-0.1-0.3-0.1-0.5-0.1c-0.2,0-0.3,0-0.4,0.1c-0.1,0.1-0.3,0.1-0.4,0.2
	c-0.1,0.1-0.2,0.2-0.3,0.3c-0.1,0.1-0.1,0.3-0.1,0.4c0,0.3,0.1,0.5,0.2,0.6c0.1,0.2,0.3,0.3,0.5,0.4c0.1,0,0.2,0.1,0.4,0.2
	c0.2,0.1,0.3,0.1,0.4,0.2c0.2,0.1,0.3,0.2,0.4,0.3C65.9,41.4,65.9,41.5,65.9,41.7z M81.4,29.6c-0.4,0.4-0.7,0.7-0.7,0.9
	c0.5-0.4,0.8-0.6,1.1-0.6c0.2,0,0.3,0.1,0.3,0.3v5.3c0,0.4,0.1,0.7,0.3,0.9c0.2,0.3,0.4,0.4,0.8,0.4c0.4,0,0.7-0.1,1-0.3
	c0.3-0.2,0.6-0.6,0.9-1.1c-0.1,0-0.2,0.2-0.4,0.3C84.3,35.9,84.1,36,84,36c-0.2,0-0.3-0.2-0.4-0.5v-5.1c0-0.4-0.1-0.7-0.2-1
	C83.2,29.1,83,29,82.6,29C82.2,29,81.8,29.2,81.4,29.6z M81.8,27.2c0.1,0.3,0.3,0.4,0.6,0.4c0.3,0,0.6-0.1,1-0.4
	c0.4-0.2,0.5-0.6,0.5-1c0-0.4-0.1-0.7-0.3-0.9c-0.2-0.2-0.5-0.3-0.8-0.3c-0.4,0-0.7,0.1-0.9,0.3c-0.2,0.2-0.3,0.5-0.3,0.9
	C81.6,26.6,81.7,26.9,81.8,27.2z M91.2,35.4v-9.2c0-0.2,0.3-0.3,0.9-0.3c0.6,0,1.1-0.4,1.5-1.1H92c-0.8,0-1.4,0.3-1.8,0.9
	c-0.5,0.6-0.7,1.3-0.7,2.2v7.5c0,0.5,0.1,0.8,0.2,1.1c0.2,0.3,0.4,0.4,0.8,0.4c0.4,0,0.8-0.2,1.3-0.6c0.5-0.4,0.8-0.9,1.1-1.4
	c-0.3,0.3-0.6,0.5-0.8,0.6c-0.2,0.2-0.4,0.2-0.6,0.2C91.3,35.7,91.2,35.6,91.2,35.4z M89.6,24.8H88c-0.8,0-1.4,0.3-1.8,0.9
	c-0.5,0.6-0.7,1.3-0.7,2.2v7.5c0,0.5,0.1,0.8,0.2,1.1c0.2,0.3,0.4,0.4,0.8,0.4c0.4,0,0.8-0.2,1.3-0.6c0.5-0.4,0.8-0.9,1.1-1.4
	c-0.3,0.3-0.6,0.5-0.8,0.6c-0.2,0.2-0.4,0.2-0.6,0.2c-0.2,0-0.3-0.1-0.3-0.3v-9.2c0-0.2,0.3-0.3,0.9-0.3
	C88.8,25.8,89.3,25.5,89.6,24.8z M87,43.1c0,0,0-0.1,0-0.2c0-0.1,0-0.2,0-0.2c0-0.1,0-0.1-0.1-0.2c-0.1-0.1-0.1-0.1-0.2-0.1
	c-0.1,0-0.2,0-0.2,0.1c0,0.1-0.1,0.1-0.1,0.2c0,0.2,0.1,0.4,0.3,0.5c0.2,0.1,0.5,0.2,0.8,0.2c0.4,0,0.7-0.1,1-0.4
	c0.3-0.3,0.4-0.6,0.4-1c0-0.2,0-0.4-0.1-0.6c-0.1-0.1-0.2-0.3-0.3-0.4c-0.1-0.1-0.2-0.2-0.4-0.2C88,41,87.9,41,87.8,41
	c-0.2,0-0.3,0-0.4,0.1c-0.1,0.1-0.2,0.1-0.3,0.2l0.1-1.1h1.7v-0.5h-1.9l-0.2,1.9l0.2,0.1c0.1-0.1,0.2-0.2,0.3-0.3
	c0.1-0.1,0.3-0.1,0.4-0.1c0.2,0,0.4,0.1,0.6,0.2c0.1,0.2,0.2,0.4,0.2,0.6c0,0.2,0,0.4-0.1,0.5c0,0.1-0.1,0.2-0.2,0.3
	c-0.1,0.1-0.2,0.2-0.3,0.2c-0.1,0-0.2,0.1-0.3,0.1c-0.1,0-0.2,0-0.2,0c-0.1,0-0.1,0-0.2-0.1C87.1,43.2,87.1,43.1,87,43.1
	C87,43.1,87,43.1,87,43.1z M84,39.4c-0.4,0.4-0.6,1-0.6,1.6c0,0.2,0,0.5,0.1,0.7c0.1,0.2,0.2,0.4,0.3,0.5c0.1,0.1,0.3,0.2,0.4,0.3
	c0.2,0.1,0.3,0.1,0.5,0.1c0.2,0,0.3,0,0.5-0.1c0.2-0.1,0.3-0.2,0.4-0.3c0.1-0.1,0.2-0.3,0.3-0.4c0.1-0.2,0.1-0.3,0.1-0.5
	c0-0.3-0.1-0.6-0.3-0.9c-0.2-0.2-0.5-0.3-0.8-0.3c-0.2,0-0.3,0-0.5,0.1c-0.1,0.1-0.3,0.2-0.5,0.3c0.1-0.4,0.2-0.7,0.4-1
	c0.2-0.3,0.5-0.5,0.9-0.6l0.2,0l0-0.2C84.9,38.7,84.4,38.9,84,39.4z M82.7,40.1l-1.8,3.4h0.3l1.9-3.7v-0.2h-2.5v1.1h0.2
	c0-0.1,0.1-0.3,0.1-0.4c0-0.1,0.1-0.2,0.1-0.2c0.1,0,0.2,0,0.2-0.1c0.1,0,0.2,0,0.4,0H82.7z M22.8,25v-0.3c0,0-0.2,0.1-0.4,0.3
	c-2.4,0-4.7,0.3-6,1.2c-1.2,0.8-1.8,1.9-1.8,3.5c0,1.2,0.4,2.2,1.2,3.1c0.8,0.8,2,1.2,3.5,1.2c-1.4-0.6-2.4-1.3-2.9-2.1
	c-0.6-0.8-0.9-1.8-0.9-2.8c0-1.1,0.4-1.9,1.3-2.6c0.9-0.6,2.6-0.9,5.1-0.9c-0.2,0.2-0.4,0.5-0.6,0.9c-0.1,0.2-0.2,0.5-0.3,0.8
	c0,0,0,0,0,0l0,0c0,0,0,0,0,0.1c-0.3,0.8-0.4,1.6-0.4,2.3v5.1c0,0.5-0.2,1-0.6,1.4c-0.4,0.4-1,0.6-1.6,0.8h6.1
	c-0.6-0.2-1-0.5-1.3-0.8c-0.2-0.3-0.4-0.7-0.4-1.1v-9.3c4.5,0.2,5.6,1.7,5.6,3.1c0,1.2-0.4,2-1.2,2.4c-0.8,0.4-2,0.6-3.6,0.6
	c0.9,2,2.8,5.5,6.1,8.9c1.2,1.2,5.2,3.6,9.4-0.3c-5,2.8-7.2,0.7-8.6-0.7c-1.4-1.4-4.7-6.4-5.1-7.4c1.5-0.2,2.8-0.3,3.9-1.3
	c0.9-0.8,1.4-1.6,1.4-2.8c0-1.4-1.3-2.1-1.7-2.2C27.6,25.4,25.2,25.1,22.8,25z M37.8,11.9c-7.5,1.4-14.3,3.7-20,6.8
	c-9.2,5-14.2,11.6-14.2,18.4c0,6.8,5,13.4,14.2,18.4c9.7,5.3,22.5,8.2,36.3,8.2c13.8,0,26.6-2.9,36.3-8.2c9.2-5,14.2-11.6,14.2-18.4
	c0-6.8-5-13.4-14.2-18.4c-4.8-2.7-10.4-4.7-16.6-6.1c-0.1,0.1-0.1,0.2-0.2,0.3c6.1,1.4,11.8,3.4,16.6,6.1c9.1,5,14,11.4,14,18.1
	c0,6.7-5,13.1-14,18.1c-9.6,5.3-22.4,8.2-36.1,8.2c-13.7,0-26.5-2.9-36.1-8.2c-9.1-5-14-11.4-14-18.1c0-6.7,5-13.1,14-18.1
	c5.6-3.1,12.2-5.3,19.5-6.7C37.5,12.2,37.7,12.1,37.8,11.9z M67,12.8c-0.4,0.6-0.9,1.5-1,2.2c0.4,0,0.7,0,1,0
	c0.7-0.1,1.5-0.3,2.2-0.6c1.2-0.4,2.3-0.8,3.1-1.7c0.1-0.1,0.2-0.2,0.2-0.3c0.1-0.2,0.2-0.3,0.3-0.5c0,0,0,0,0-0.1
	c0.1-0.1,0.1-0.3,0.2-0.4c0.1-0.2,0.1-0.4,0.2-0.7c0.1-0.2,0.1-0.5,0.2-0.7c0.1-0.4,0.2-0.7,0.3-1c0-0.2,0-0.4-0.1-0.5
	c-0.1-0.1-0.4-0.2-0.8-0.2C71.3,8.3,70,9.2,69.2,10c-0.9,0.8-1.6,1.8-2.1,2.7L67,12.8z M64.4,10c0.2,0.1,0.3,0.3,0.3,0.6
	c0.5,0.1,1,0.1,1.4,0.2c0.1-0.2,0.3-0.3,0.4-0.5C65.8,10.1,65.1,10.1,64.4,10z M64.8,11.1c0,0.1,0,0.2,0,0.3c0.2,0,0.5,0,0.7,0.1
	c0.1-0.1,0.1-0.2,0.2-0.3C65.4,11.2,65.1,11.2,64.8,11.1z M64.3,17.7c-1-0.1-2-0.1-2.8-0.1c0.1,0.3,0.2,0.7,0.3,1
	c0.1,0.4,0.2,0.7,0.3,1.1c0.3,1.2,1,2.8,2.2,3.5c0.5,0.3,1.3,0.5,2.2,0.5c0.8,0,1.6-0.4,2.3-0.9c0.2-0.1,0.4-0.2,0.6-0.3
	c1-0.5,1.3-0.9,1.2-1.4c-0.2-0.9-1.1-1.8-1.8-2.3c-1.1-0.7-2.4-0.9-3.8-1C64.8,17.8,64.6,17.8,64.3,17.7z M54.2,11.1
	c0.1,0.1,0.1,0.1,0.2,0.2c1.7-0.9,3.8-1.3,5.4-0.4c0.1,0,0,0.1,0,0.1c-1.1,0.3-2.1,0.2-3.2,0.3c-0.7,0.1-1.3,0.2-2,0.4
	c0,0.1,0.1,0.3,0.1,0.4c0,0.3-0.1,0.6-0.3,0.9c0,0,0,0,0,0.1c0,0,0,0,0,0c0.6,0.3,1,0.7,1.5,1c0.4,0.3,0.7,0.5,1.1,0.8
	c0.1,0.1,0.3,0.2,0.5,0.3c0.4,0.3,0.9,0.6,1.4,0.9c0.1,0,0.2,0.1,0.3,0.1c1.4,0.3,2.7,0.3,3.7,0c0.4-0.1,1.2-0.4,1.3-1.1
	c0.1-0.6-0.1-1.3-0.3-1.9c-0.1-0.4-0.2-0.8-0.3-1.1c0-0.1,0-0.3,0-0.5c0-0.1,0-0.2,0-0.2c0-0.1,0-0.2,0-0.4c0,0,0,0,0,0c0,0,0,0,0,0
	c0,0-0.1,0-0.1,0.1c-0.1,0.1-0.2,0.2-0.4,0.2c-0.3,0.1-0.6,0.2-1,0c-0.4-0.2-0.7-0.6-0.8-1.1c0,0,0,0,0,0c-0.1-0.2-0.1-0.4-0.1-0.6
	c0-0.4,0.2-0.9,0.5-1.2c0.2-0.2,0.5-0.3,0.7-0.4c0.1,0,0.1,0,0.2-0.1c0.1-0.1-0.1-0.5-0.1-0.6c-0.3-0.9-1.2-1.7-2.2-2
	c-1.6-0.4-3.5,0.6-4.8,2C55.4,8,55.2,8.6,55,9.2C54.8,9.8,54.6,10.4,54.2,11.1z M62.4,9.8c0,0.2,0.1,0.4,0.2,0.4
	c0,0,0.1-0.1,0.2-0.1c0.1-0.1,0.3-0.2,0.4-0.2C62.9,9.8,62.7,9.8,62.4,9.8z M43.1,6.6c0,0.8,0.1,1.9,0.5,2.6
	c0.1,0.2,0.3,0.5,0.5,0.7c0.1,0.1,0.1,0.1,0.2,0.2c0.1,0.1,0.2,0.2,0.3,0.3c0.2,0.2,0.4,0.3,0.6,0.5c0,0,0,0,0.1,0.1
	c0.1,0,0.1,0.1,0.1,0.1c0,0,0.1,0,0.1,0.1c0.5,0.3,1,0.5,1.6,0.8c0.2,0.1,0.3,0.1,0.5,0.2l0.3,0.1c0.1,0,0.1,0.1,0.2,0.1
	c0.1,0,0.2,0.1,0.3,0.1c0,0,0.1,0,0.1,0.1c0,0,0,0,0,0c0,0,0.1,0,0.1-0.1c-0.1-0.2-0.2-0.4-0.2-0.6c0-0.1,0-0.1,0-0.2
	c0-0.2,0-0.3,0.1-0.4c0.2-0.6,0.7-1,1.3-1c0.3,0,0.5,0.1,0.7,0.2C50,8.8,49.1,7.2,48,5.9c0,0,0,0,0,0c1.4,1.3,2.6,2.6,3,4.3
	c0.3-0.2,0.6-0.4,1-0.4c0.1,0,0.2,0,0.3,0c0.2,0,0.4,0.1,0.5,0.2c0.2,0.1,0.3,0.3,0.4,0.4c0.3-0.6,0.5-1.1,0.7-1.7
	c0.1-0.2,0.2-0.5,0.2-0.7c0.1-0.4,0.2-0.8,0.2-1.2c0-0.3,0.1-0.7,0-1c0-0.9-0.3-2.2-0.9-2.9c-0.7-0.7-1.6-1-2.7-0.7
	c-0.6,0.1-1.2,0.3-1.7,0.6c-0.3,0.1-0.4,0.3-0.5,0.7c-0.1,0.1-0.1,0.2-0.2,0.4c-0.2,0.4-0.6,0.7-1.1,0.8c-0.4,0.1-0.8,0-1.1-0.2
	c-0.4-0.3-0.4-0.6-0.4-0.8c-0.1,0-0.2,0-0.3,0l-0.2,0c0,0,0,0,0,0c-0.3,0-1.4,0.1-1.8,0.7C43.2,5,43.1,5.8,43.1,6.6z M41,11.6
	l-0.6,0.2c-0.2,0.1-0.4,0.1-0.5,0.2c-0.2,0.1-0.4,0.2-0.6,0.3c-0.9,0.5-1.3,1.4-1.3,2.5c0,0.5,0.3,1.2,0.7,1.7l0.1,0.1
	c0.5,0.7,0.7,0.8,0.8,0.8c0,0,0.1-0.1,0.1-0.2c0.1-0.1,0.2-0.2,0.3-0.3c0.5-0.5,1.2-0.7,1.8-0.7c0.7,0,1,0.3,1.2,0.6
	c0.4,0.4,0.5,1.1,0.4,1.8c-0.1,0.7-0.4,1.3-0.9,1.5c-0.4,0.2-0.8,0.2-1.2-0.1c-0.1,0-0.2-0.1-0.3-0.2c0,0,0,0.1,0,0.1
	c0.2,0.4,0.7,0.7,1.3,0.9c0.4,0.1,0.8,0.2,1.2,0.2c0.4,0,0.9-0.1,1.4-0.2l0.4-0.1c0.9-0.2,1.8-0.6,2.4-1.3c0.1-0.2,0.3-0.3,0.4-0.5
	c0.3-0.4,0.6-0.9,0.9-1.4c0.1-0.3,0.3-0.5,0.4-0.8c0.3-0.4,0.4-1,0.6-1.5l0.1-0.2c0,0,0-0.1,0-0.1c-0.2,0.1-0.3,0.1-0.5,0.1
	c0,0,0,0,0,0c-0.8,0-1.4-0.6-1.4-1.4c-0.2-0.1-0.4-0.1-0.6-0.2l-0.3-0.1c-0.3-0.1-0.6-0.2-0.9-0.3c-2.7-0.8-5.7-0.2-6.7,2.8
	c0,0,0,0,0,0c0.4-2.6,2.6-4,4.9-3.8c-0.3-0.2-0.6-0.4-0.8-0.6c-0.1,0-0.2,0-0.3,0c-0.3,0-0.6,0-0.9,0C42,11.3,41.5,11.5,41,11.6z
	 M105.7,37.2c0-7.2-5.3-14.1-14.8-19.4c-4.9-2.7-10.5-4.7-16.7-6.2c-0.1,0.2-0.1,0.3-0.2,0.5c6.1,1.4,11.8,3.5,16.6,6.1
	c9.4,5.1,14.5,11.9,14.5,18.9c0,7-5.2,13.8-14.5,18.9c-9.7,5.4-22.7,8.3-36.6,8.3c-13.8,0-26.8-3-36.6-8.3C8.2,50.9,3,44.2,3,37.2
	c0-7,5.2-13.8,14.5-18.9c6-3.3,13.2-5.7,21.1-7c0,0,0,0,0,0c0.5-0.3,0.9-0.4,1.4-0.5l0.5-0.2c0.3-0.1,0.6-0.2,1-0.3
	c-9.1,1.2-17.5,3.8-24.3,7.5C7.7,23,2.5,29.9,2.5,37.2c0,7.2,5.2,14.1,14.8,19.4c9.8,5.4,22.9,8.4,36.8,8.4c13.9,0,27-3,36.8-8.4
	C100.4,51.3,105.7,44.4,105.7,37.2z M43.7,14.1c1.2-0.2,2.2,0,3.3,0.4c0,0,0.1,0,0-0.1c-1.7-1.8-5.2-1.1-6.5,0.8c0,0,0,0,0,0
	C41.6,14.8,42.5,14.3,43.7,14.1z M53.3,19.8c-0.8-1-1.6-2.5-1.7-3.8c0,0,0,0,0,0C51.1,17.3,52.1,19.2,53.3,19.8
	C53.3,19.9,53.4,19.8,53.3,19.8z M60.2,9.5c0.3-0.5,0-1.1-0.4-1.4c-0.6-0.3-1.2,0-1.7,0.4c0,0,0,0.1,0,0c0.5-0.3,1-0.5,1.5-0.1
	C60,8.7,60.1,9.1,60.2,9.5C60.1,9.6,60.2,9.5,60.2,9.5z M58.9,14.5c-0.1,0-0.2,0.1-0.1,0.2c0.8,0.7,2.2,1.3,3.2,0.8
	c1.1-0.5,1.1-2.2,0.6-3.1c0-0.1-0.2,0-0.2,0c0.1,1,0.2,2.5-1,2.8C60.6,15.3,59.8,14.7,58.9,14.5z M58.1,13.1
	C58,13.1,58,13.1,58.1,13.1c0.6,0.8,1.5,1,2.3,0.4c0.8-0.6,1-1.7,0.6-2.6c0,0-0.1,0-0.1,0c-0.1,0.7-0.1,1.5-0.7,2.1
	C59.6,13.6,58.9,13.3,58.1,13.1z M75.9,40.2c0-0.1-0.1-0.1-0.2-0.2C75.7,40,75.6,40,75.5,40c-0.2,0-0.3,0.1-0.5,0.2
	c-0.1,0.2-0.2,0.4-0.2,0.7H76c0-0.1,0-0.2,0-0.3C76,40.4,75.9,40.3,75.9,40.2z M62.8,18.1c0.3,0.4,0.6,0.8,1,1.2
	c-0.4,0.5-0.5,1.1-0.3,1.7c0.2,0.8,0.7,1.4,1.4,1.8c0,0,0,0,0,0c-0.9-0.6-1.3-2.3-0.7-3.3c0.3,0.3,0.7,0.5,1.2,0.7
	c0.4,0.2,0.8,0.2,1.3,0.3c0,0.4,0.5,0.8,0.8,1.1c0.4,0.4,0.8,0.9,1.4,0.9c0,0,0,0,0,0c-0.5,0-1.2-0.8-1.4-1.2
	c-0.1-0.2-0.2-0.4-0.2-0.6c1.1,0.1,2.3,0.2,3.2,1c0,0,0,0,0,0c-0.8-1-1.7-1.2-2.9-1.4c-0.6-0.1-1.2-0.3-1.7-0.5
	c0.6-0.4,1.4-0.6,2.1-0.7c0,0,0,0,0,0c-1,0-1.9-0.2-2.7,0.3c0,0-0.1,0.1-0.1,0.1C64.2,18.9,63.5,18.5,62.8,18.1
	C62.8,18,62.7,18,62.8,18.1z M84.2,42c0.1,0.2,0.3,0.4,0.5,0.4c0.2,0,0.4-0.1,0.5-0.3c0.1-0.2,0.2-0.4,0.2-0.8
	c0-0.3-0.1-0.5-0.2-0.7c-0.1-0.2-0.3-0.3-0.5-0.3c-0.1,0-0.3,0-0.4,0.1c-0.1,0-0.2,0.1-0.3,0.3c0,0,0,0.1,0,0.1c0,0.1,0,0.1,0,0.2
	C84,41.4,84.1,41.8,84.2,42z M49.3,34.6c0.3,0,0.6-0.1,0.9-0.3c0.3-0.2,0.7-0.4,1-0.7v-4c-0.9,0-1.6,0.3-2.2,1
	c-0.6,0.7-0.8,1.4-0.8,2.3c0,0.6,0.1,1,0.3,1.3C48.7,34.4,49,34.6,49.3,34.6z M66.7,14.2c0.3-0.4,0.7-0.8,1.1-1.2
	c0,0.7,1.6,0.8,2,0.6c0,0,0,0,0,0c-0.5,0.1-0.8,0-1.2-0.2c-0.3-0.1-0.4-0.3-0.6-0.5c0.6-0.5,1.2-1,1.9-1.5c0,0,0,0.1,0.1,0.1
	c0.5,0.3,1.1,0.3,1.7,0.1c0.3-0.1,0.5-0.2,0.7-0.4c0.1-0.1,0.2-0.2,0.3-0.3c0,0,0,0,0,0c-0.1,0.1-0.3,0.2-0.5,0.3
	c-0.3,0.1-0.7,0.2-1.1,0.1c-0.3,0-0.6-0.1-0.8-0.2c0.9-0.6,2-1.1,2.8-1.8c0,0,0-0.1,0-0.1c-1.6,0.1-3,1.1-4.2,2.3c0-0.1,0-0.2,0-0.3
	c0.1-0.5,0.2-0.9,0.4-1.3c0,0,0,0,0,0c-0.3,0.3-0.6,0.6-0.8,1c-0.1,0.3-0.2,0.7-0.1,0.9C67.8,12.7,67.2,13.5,66.7,14.2
	C66.7,14.2,66.7,14.2,66.7,14.2z M59.4,7.3c0.3,0.1,0.8,0.4,1,0.6c0.2,0.3,0.3,0.7,0.4,1c0,0,0.1,0,0.1,0c0-1-0.1-1.8-1.1-2.2
	c-1.2-0.4-2,0.3-2.9,1c0,0,0,0,0,0C57.6,7.3,58.5,6.9,59.4,7.3z M53.9,7.4c0,0.3-0.1,0.7-0.2,1c0,0.1,0.1,0.1,0.1,0
	c0.3-0.5,0.4-1,0.4-1.5c0-1.8-2.1-3.3-3.9-3.6c0,0,0,0,0,0C52.2,4.2,54,5.5,53.9,7.4z M46.5,52.5c0.4-0.2,0.8-0.4,1.2-0.6
	c-0.8-0.1-1.7-0.2-2.5-0.3c-1.1-0.1-2.3-0.2-3.4-0.2c-1.1,0-2.3,0.1-3.4,0.4c-0.5,0.1-1.1,0.3-1.5,0.6c-0.2,0.1-0.4,0.3-0.5,0.5
	c0,0.1,0,0.2,0,0.3c0,0.1,0.1,0.2,0.2,0.3c0.2,0.2,0.4,0.3,0.6,0.4c0.2,0.1,0.5,0.2,0.8,0.3c0.5,0.2,1.1,0.3,1.6,0.4
	c1.1,0.2,2.2,0.4,3.3,0.5c0.2-0.2,0.4-0.4,0.7-0.6C44.5,53.7,45.5,53.1,46.5,52.5z M44.3,55.1c1.8,0,3.6-0.1,5.4-0.4
	c1.1-0.2,2.2-0.4,3.3-0.7c0.8-0.2,1.7-0.5,2.5-0.8c-0.1,0-0.1,0-0.2,0c-2.1-0.4-4.1-0.8-6.2-1.1c-0.7,0.4-1.5,0.8-2.2,1.2
	C46,53.9,45.1,54.4,44.3,55.1z M49.9,51.7c1.9,0.3,3.7,0.6,5.5,1c0.3,0.1,0.6,0.1,0.9,0.2c0.5-0.2,1-0.5,1.4-0.8
	c0.2-0.2,0.4-0.3,0.6-0.5c0.1-0.1,0.1-0.2,0.2-0.3c0,0,0-0.1,0-0.1c0,0,0,0,0,0c0,0,0,0,0,0c0,0,0,0,0,0c0-0.2-0.2-0.3-0.4-0.5
	c-0.2-0.2-0.4-0.3-0.7-0.4c-0.5-0.3-1-0.5-1.5-0.7c-0.1,0-0.2-0.1-0.3-0.1c-0.9,0.3-1.7,0.6-2.5,0.9C52,50.7,51,51.2,49.9,51.7z
	 M65.5,55.3l-3.4-0.7c-1.8-0.4-3.6-0.8-5.4-1.1c-0.1,0-0.1,0.1-0.2,0.1c-1.1,0.5-2.2,0.8-3.3,1.1c-1.1,0.3-2.3,0.5-3.4,0.7
	c-2,0.3-4.1,0.4-6.2,0.3c-0.5,0.6-0.4,1.1,0.2,1.5c0.4,0.3,0.9,0.5,1.4,0.6c0.5,0.1,1.1,0.2,1.6,0.3c1.1,0.2,2.2,0.2,3.4,0.2
	c2.3,0,4.6-0.1,6.8-0.3c2.3-0.2,4.5-0.5,6.7-1c1.5-0.3,3.1-0.7,4.6-1.2c-0.4-0.1-0.9-0.1-1.3-0.2C66.6,55.5,66,55.4,65.5,55.3z
	 M58.6,50.1c0.1,0.1,0.2,0.2,0.3,0.4c0.1,0.1,0.2,0.3,0.3,0.5c0,0,0,0.1,0,0.2c0,0,0,0,0,0.1c0,0,0,0.1,0,0.1c0,0.1,0,0.2-0.1,0.3
	c-0.1,0.2-0.2,0.3-0.3,0.5c-0.2,0.3-0.5,0.5-0.7,0.6c-0.2,0.2-0.5,0.3-0.7,0.4c1.6,0.3,3.2,0.7,4.8,1l3.4,0.7
	c0.6,0.1,1.1,0.3,1.7,0.4c0.6,0.1,1.1,0.2,1.7,0.3c0.1,0,0.3,0,0.4,0.1c0.3-0.1,0.7-0.2,1-0.4c1-0.4,2.1-0.9,3-1.4
	c0.5-0.3,0.9-0.6,1.4-0.9c0.2-0.2,0.4-0.3,0.6-0.5c0.1-0.1,0.2-0.2,0.3-0.3l0.1-0.1c0,0,0.1-0.1,0.1-0.1c0.3-0.4,0.9-0.4,1.2-0.1
	c0.4,0.3,0.4,0.9,0.1,1.2c0,0,0,0,0,0l0,0c-0.1,0.1-0.1,0.1-0.2,0.2l-0.2,0.2c-0.1,0.1-0.2,0.2-0.4,0.3c-0.2,0.2-0.5,0.4-0.7,0.5
	c-0.5,0.3-1,0.6-1.6,0.9c-0.5,0.3-1,0.5-1.4,0.7c1,0.1,2,0.1,3.1,0.1c2.3,0,4.6-0.2,6.8-0.6c1.1-0.2,2.2-0.5,3.3-0.8
	c0.5-0.2,1.1-0.4,1.6-0.6c0.5-0.2,1-0.5,1.4-0.9c0.4-0.4,0.7-0.8,0.8-1.3c0-0.2,0-0.5-0.1-0.7c-0.1-0.3-0.2-0.5-0.3-0.7
	c-0.3-0.5-0.7-0.8-1.1-1.2c-0.4-0.3-0.9-0.6-1.4-0.8c-1-0.4-2.1-0.7-3.2-0.9c-1.1-0.2-2.3-0.3-3.4-0.4c-2.3-0.2-4.6-0.2-6.9-0.1
	c-2.3,0.1-4.6,0.2-6.9,0.3c-2.3,0.1-4.5,0.5-6.8,1c-1,0.2-1.9,0.5-2.9,0.8c0.4,0.2,0.7,0.3,1.1,0.5C58,49.7,58.3,49.8,58.6,50.1z"/>
<path id="white" class="st1" d="M70.5,42v-1.4c0-0.2,0-0.3-0.1-0.4c-0.1-0.1-0.2-0.2-0.3-0.2c-0.1,0-0.2,0-0.3,0
	c-0.1,0-0.1,0.1-0.2,0.1c-0.1,0-0.1,0.1-0.1,0.1c0,0-0.1,0.1-0.1,0.1V42c0,0.1,0,0.1,0,0.2s0.1,0.1,0.1,0.1c0,0,0.1,0,0.1,0
	c0,0,0.1,0,0.1,0v0.2h-1.3v-0.2c0,0,0.1,0,0.1,0c0,0,0.1,0,0.1,0c0.1,0,0.1,0,0.1-0.1c0,0,0-0.1,0-0.2v-1.6c0-0.1,0-0.1,0-0.2
	c0-0.1-0.1-0.1-0.1-0.1c0,0-0.1,0-0.1,0c0,0-0.1,0-0.2,0v-0.2l0.9-0.1l0,0v0.4h0c0,0,0.1-0.1,0.2-0.2c0.1-0.1,0.1-0.1,0.2-0.1
	c0.1,0,0.1-0.1,0.2-0.1c0.1,0,0.2,0,0.3,0c0.3,0,0.4,0.1,0.6,0.2c0.1,0.2,0.2,0.4,0.2,0.6V42c0,0.1,0,0.1,0,0.2c0,0,0.1,0.1,0.1,0.1
	c0,0,0.1,0,0.1,0c0,0,0.1,0,0.1,0v0.2h-1.3v-0.2c0,0,0.1,0,0.1,0c0,0,0.1,0,0.1,0c0,0,0.1,0,0.1-0.1C70.5,42.2,70.5,42.1,70.5,42z
	 M73.3,40.5c0,0.1,0,0.1,0.1,0.2s0.1,0.1,0.2,0.1c0.1,0,0.2,0,0.2-0.1c0-0.1,0.1-0.1,0.1-0.2c0-0.2-0.1-0.4-0.2-0.5
	c-0.2-0.1-0.4-0.2-0.6-0.2c-0.2,0-0.4,0-0.5,0.1c-0.2,0.1-0.3,0.2-0.4,0.3c-0.1,0.1-0.2,0.3-0.3,0.4c-0.1,0.2-0.1,0.3-0.1,0.5
	c0,0.4,0.1,0.8,0.3,1c0.2,0.3,0.5,0.4,0.9,0.4c0.2,0,0.4-0.1,0.6-0.2c0.2-0.1,0.3-0.3,0.5-0.5l-0.2-0.1c-0.1,0.2-0.2,0.3-0.3,0.4
	c-0.1,0.1-0.3,0.1-0.4,0.1c-0.2,0-0.4-0.1-0.6-0.3c-0.1-0.2-0.2-0.5-0.2-0.8c0-0.2,0-0.4,0.1-0.5c0-0.2,0.1-0.3,0.2-0.4
	c0.1-0.1,0.1-0.2,0.2-0.2c0.1,0,0.2-0.1,0.2-0.1c0.1,0,0.1,0,0.2,0c0.1,0,0.1,0.1,0.1,0.1c0,0,0,0.1,0,0.2
	C73.3,40.4,73.3,40.5,73.3,40.5z M67.2,42.2c0,0-0.1,0.1-0.1,0.1c0,0-0.1,0-0.1,0c0,0-0.1,0-0.1,0v0.2h1.3v-0.2c0,0-0.1,0-0.1,0
	c0,0-0.1,0-0.1,0c-0.1,0-0.1,0-0.1-0.1c0,0,0-0.1,0-0.2v-2.2l0,0l-0.9,0.1V40c0.1,0,0.1,0,0.2,0c0.1,0,0.1,0,0.1,0.1
	c0,0,0.1,0.1,0.1,0.1c0,0,0,0.1,0,0.2V42C67.3,42.1,67.3,42.2,67.2,42.2z M79,42.2c0,0-0.1,0.1-0.1,0.1c0,0-0.1,0-0.2,0
	c-0.1,0-0.2,0-0.3,0v0.2h1.8v-0.2c-0.1,0-0.1,0-0.2,0c-0.1,0-0.2,0-0.2-0.1c-0.1,0-0.1-0.1-0.1-0.1s0-0.1,0-0.2v-1.6
	c0-0.1,0-0.3,0-0.4c0-0.2,0-0.3,0-0.4h-0.2c-0.1,0.1-0.2,0.2-0.3,0.2c-0.2,0.1-0.3,0.1-0.5,0.1h-0.1v0.2h0.7V42
	C79.1,42.1,79.1,42.1,79,42.2z M76.5,41.1h-1.8c0,0.2,0,0.3,0,0.5c0,0.1,0.1,0.3,0.2,0.4c0.1,0.1,0.2,0.2,0.3,0.2
	c0.1,0.1,0.2,0.1,0.4,0.1c0.2,0,0.3,0,0.4-0.1c0.1-0.1,0.2-0.2,0.3-0.4l0.2,0.1c-0.1,0.2-0.3,0.4-0.4,0.5c-0.2,0.1-0.4,0.2-0.6,0.2
	c-0.2,0-0.4,0-0.6-0.1c-0.2-0.1-0.3-0.2-0.4-0.3c-0.1-0.1-0.2-0.3-0.2-0.5c-0.1-0.2-0.1-0.4-0.1-0.5c0-0.2,0-0.3,0.1-0.5
	c0.1-0.2,0.1-0.3,0.2-0.4c0.1-0.1,0.2-0.2,0.4-0.3c0.2-0.1,0.3-0.1,0.5-0.1c0.2,0,0.4,0,0.5,0.1c0.1,0.1,0.3,0.1,0.3,0.3
	c0.1,0.1,0.1,0.2,0.2,0.4c0,0.1,0.1,0.3,0.1,0.4V41.1z M76,40.9c0-0.1,0-0.2,0-0.3c0-0.1,0-0.2-0.1-0.3c0-0.1-0.1-0.1-0.2-0.2
	C75.7,40,75.6,40,75.5,40c-0.2,0-0.3,0.1-0.5,0.2c-0.1,0.2-0.2,0.4-0.2,0.7H76z M67.7,39c0.1-0.1,0.1-0.2,0.1-0.3
	c0-0.1,0-0.2-0.1-0.2c-0.1-0.1-0.1-0.1-0.3-0.1c-0.1,0-0.2,0-0.2,0.1c-0.1,0.1-0.1,0.2-0.1,0.3c0,0.1,0,0.2,0.1,0.2
	c0.1,0.1,0.1,0.1,0.2,0.1C67.6,39.1,67.7,39.1,67.7,39z M87.1,42.7c0-0.1,0-0.1-0.1-0.2c-0.1-0.1-0.1-0.1-0.2-0.1
	c-0.1,0-0.2,0-0.2,0.1c0,0.1-0.1,0.1-0.1,0.2c0,0.2,0.1,0.4,0.3,0.5c0.2,0.1,0.5,0.2,0.8,0.2c0.4,0,0.7-0.1,1-0.4
	c0.3-0.3,0.4-0.6,0.4-1c0-0.2,0-0.4-0.1-0.6c-0.1-0.1-0.2-0.3-0.3-0.4c-0.1-0.1-0.2-0.2-0.4-0.2C88,41,87.9,41,87.8,41
	c-0.2,0-0.3,0-0.4,0.1c-0.1,0.1-0.2,0.1-0.3,0.2l0.1-1.1h1.7v-0.5h-1.9l-0.2,1.9l0.2,0.1c0.1-0.1,0.2-0.2,0.3-0.3
	c0.1-0.1,0.3-0.1,0.4-0.1c0.2,0,0.4,0.1,0.6,0.2c0.1,0.2,0.2,0.4,0.2,0.6c0,0.2,0,0.4-0.1,0.5c0,0.1-0.1,0.2-0.2,0.3
	c-0.1,0.1-0.2,0.2-0.3,0.2c-0.1,0-0.2,0.1-0.3,0.1c-0.1,0-0.2,0-0.2,0c-0.1,0-0.1,0-0.2-0.1c0,0-0.1,0-0.1-0.1c0,0-0.1,0-0.1-0.1
	c0,0,0-0.1,0-0.2C87.1,42.8,87.1,42.7,87.1,42.7z M86.2,25.7c-0.5,0.6-0.7,1.3-0.7,2.2v7.5c0,0.5,0.1,0.8,0.2,1.1
	c0.2,0.3,0.4,0.4,0.8,0.4c0.4,0,0.8-0.2,1.3-0.6c0.5-0.4,0.8-0.9,1.1-1.4c-0.3,0.3-0.6,0.5-0.8,0.6c-0.2,0.2-0.4,0.2-0.6,0.2
	c-0.2,0-0.3-0.1-0.3-0.3v-9.2c0-0.2,0.3-0.3,0.9-0.3c0.6,0,1.1-0.4,1.5-1.1H88C87.3,24.8,86.6,25.1,86.2,25.7z M71.6,25.9
	c0.3-0.3,0.8-0.6,1.3-0.8h-3.4h-0.8c0,0-1.1,0-1.5,0c-1.4,0-3,0.5-4,1.2c-1.2,0.8-1.8,1.9-1.8,3.5c0,1.2,0.4,2.2,1.2,3.1
	c0.8,0.8,2,1.2,3.5,1.2c-1.4-0.6-2.4-1.3-2.9-2.1c-0.6-0.8-0.9-1.8-0.9-2.8c0-1.1,0.4-1.9,1.3-2.6c0.8-0.6,2.7-1.2,4.5-0.9
	c0.2,0,0.4,0.3,0.4,0.4c0.2,0.2,0.3,0.6,0.3,1v7.8c0,0.5-0.2,0.9-0.5,1.3c-0.3,0.4-0.8,0.7-1.2,0.9h5.7c-0.5-0.2-0.9-0.5-1.2-0.8
	c-0.3-0.3-0.4-1.6-0.4-2.4c0-1.1,4-4.2,4.9-4.3v5.5c0,0.5-0.1,0.8-0.4,1.2c-0.3,0.3-0.7,0.6-1.2,0.8H80c-0.5-0.2-0.9-0.5-1.2-0.8
	c-0.3-0.3-0.5-0.7-0.5-1.2l0-5.8c0.9,0,1.4,0.4,1.8,0.9c-0.1-0.6-1-1.2-1.8-1.2v-1.5c0-0.4,0.1-0.8,0.3-1.2c0.2-0.4,0.6-0.8,1.4-1
	h-5.7c0.7,0.3,1.2,0.6,1.4,0.9c0.2,0.3,0.3,0.7,0.3,1.3v1.6c-1.5,0.4-4,1.7-4.9,2.5v-4.2C71.1,26.6,71.3,26.2,71.6,25.9z M92.1,25.9
	c0.6,0,1.1-0.4,1.5-1.1H92c-0.8,0-1.4,0.3-1.8,0.9c-0.5,0.6-0.7,1.3-0.7,2.2v7.5c0,0.5,0.1,0.8,0.2,1.1c0.2,0.3,0.4,0.4,0.8,0.4
	c0.4,0,0.8-0.2,1.3-0.6c0.5-0.4,0.8-0.9,1.1-1.4c-0.3,0.3-0.6,0.5-0.8,0.6c-0.2,0.2-0.4,0.2-0.6,0.2c-0.2,0-0.3-0.1-0.3-0.3v-9.2
	C91.2,26,91.5,25.9,92.1,25.9z M65.8,42.2c-0.1,0.1-0.1,0.1-0.2,0.1c-0.1,0-0.2,0-0.3,0c-0.2,0-0.3,0-0.4-0.1
	c-0.1-0.1-0.2-0.1-0.3-0.3c-0.1-0.1-0.2-0.2-0.2-0.4c-0.1-0.1-0.1-0.3-0.2-0.4h-0.2l0,1.3h0.2l0.1-0.2c0.1,0.1,0.3,0.1,0.4,0.2
	c0.2,0.1,0.3,0.1,0.5,0.1c0.4,0,0.7-0.1,0.9-0.3c0.2-0.2,0.4-0.5,0.4-0.8c0-0.1,0-0.3-0.1-0.4c0-0.1-0.1-0.2-0.2-0.3
	c-0.1-0.1-0.2-0.1-0.3-0.2c-0.1-0.1-0.2-0.1-0.3-0.2c-0.1-0.1-0.2-0.1-0.4-0.1c-0.1,0-0.3-0.1-0.4-0.2c-0.1-0.1-0.3-0.2-0.3-0.3
	c-0.1-0.1-0.1-0.2-0.1-0.4c0-0.2,0.1-0.3,0.2-0.4c0.1-0.1,0.3-0.2,0.4-0.2c0.2,0,0.3,0,0.4,0.1c0.1,0.1,0.2,0.1,0.3,0.2
	c0.1,0.1,0.1,0.2,0.2,0.4c0,0.1,0.1,0.3,0.1,0.4h0.2l0-1.3h-0.2L66,38.9c-0.1-0.1-0.2-0.1-0.4-0.2c-0.1-0.1-0.3-0.1-0.5-0.1
	c-0.2,0-0.3,0-0.4,0.1c-0.1,0.1-0.3,0.1-0.4,0.2c-0.1,0.1-0.2,0.2-0.3,0.3c-0.1,0.1-0.1,0.3-0.1,0.4c0,0.3,0.1,0.5,0.2,0.6
	c0.1,0.2,0.3,0.3,0.5,0.4c0.1,0,0.2,0.1,0.4,0.2c0.2,0.1,0.3,0.1,0.4,0.2c0.2,0.1,0.3,0.2,0.4,0.3c0.1,0.1,0.1,0.3,0.1,0.4
	c0,0.1,0,0.2,0,0.3C65.9,42,65.8,42.1,65.8,42.2z M82.4,27.6c0.3,0,0.6-0.1,1-0.4c0.4-0.2,0.5-0.6,0.5-1c0-0.4-0.1-0.7-0.3-0.9
	c-0.2-0.2-0.5-0.3-0.8-0.3c-0.4,0-0.7,0.1-0.9,0.3c-0.2,0.2-0.3,0.5-0.3,0.9c0,0.4,0.1,0.7,0.2,0.9C81.9,27.5,82.1,27.6,82.4,27.6z
	 M80.6,30.5c0.5-0.4,0.8-0.6,1.1-0.6c0.2,0,0.3,0.1,0.3,0.3v5.3c0,0.4,0.1,0.7,0.3,0.9c0.2,0.3,0.4,0.4,0.8,0.4c0.4,0,0.7-0.1,1-0.3
	c0.3-0.2,0.6-0.6,0.9-1.1c-0.1,0-0.2,0.2-0.4,0.3C84.3,35.9,84.1,36,84,36c-0.2,0-0.3-0.2-0.4-0.5v-5.1c0-0.4-0.1-0.7-0.2-1
	C83.2,29.1,83,29,82.6,29c-0.4,0-0.8,0.2-1.2,0.6C80.9,30,80.7,30.3,80.6,30.5z M42.1,29.5C42,29.1,41.8,29,41.4,29
	c-0.2,0-0.6,0.2-1.1,0.7c-0.5,0.5-0.8,0.9-1,1.3c0.2-0.2,0.3-0.3,0.5-0.4c0.1-0.1,0.3-0.1,0.4-0.1c0.2,0,0.4,0.1,0.4,0.4v5.9
	c0.4,0,0.7-0.2,0.9-0.4c0.3-0.2,0.5-0.4,0.7-0.6v-3.4c0.3-0.4,0.6-0.8,1-1.3c0.3-0.4,0.6-0.6,0.9-0.6c0.2,0,0.4,0.1,0.5,0.3
	c0.1,0.2,0.1,0.4,0.1,0.6c0,0.2,0,0.5-0.1,0.7c-0.1,0.3-0.1,0.5-0.2,0.6c0.4-0.4,0.9-0.9,1.4-1.4c0.5-0.5,0.7-1,0.7-1.4
	c0-0.3-0.1-0.6-0.3-0.9c-0.2-0.2-0.4-0.4-0.8-0.4c-0.6,0-1.2,0.3-1.8,1c-0.5,0.6-0.9,1.3-1.4,1.9v-0.8
	C42.2,30.3,42.1,29.8,42.1,29.5z M53,21.4C53,21.4,53,21.4,53,21.4c-0.7-0.4-1.3-0.8-1.8-1.3c-0.6-0.6-1-1.3-1.1-2.1c0,0,0,0,0,0
	c0.1-0.2,0.3-0.5,0.4-0.7c0.3-0.5,0.4-1,0.6-1.5c0.1,0,0.3,0.1,0.4,0.1c0.6,0,1.1-0.4,1.3-0.9c0.1,0,0.2,0.1,0.4,0.1c0,0,0,0,0.1,0
	c0,0,0,0,0,0c0.4,0.5,0.8,1,1.2,1.5c0.2,0.3,0.4,0.7,0.4,1.1c0,0.3-0.1,0.7-0.1,1c0,0.1,0.1,0.1,0.1,0.1c0.5-0.4,0.3-1.2,0.1-1.7
	c-0.4-0.8-1.1-1.5-1.8-2c0.2,0,0.4-0.1,0.5-0.1c0.2-0.1,0.3-0.2,0.5-0.4c0,0,0.1-0.1,0.1-0.1c0.3,0.2,0.7,0.4,1,0.7
	c0.4,0.3,0.8,0.5,1.1,0.8c0.1,0,0.1,0.1,0.2,0.1c0.1,0.1,0.2,0.1,0.3,0.2c0.5,0.3,1,0.6,1.4,1c0.5,0.5,0.9,1,0.8,1.6
	c-0.1,0.6-0.8,1.8-1.4,2.1c-0.2,0.1-0.3,0.1-0.5-0.1c-0.1-0.1-0.2-0.3-0.4-0.4c-0.3-0.4-0.8-1-1.6-0.9c-0.3,0-1.1,0.2-1.5,0.8
	c-0.1,0.2-0.3,0.6-0.1,1.1c0.1,0.4,0.4,0.6,0.6,0.7c0,0,0,0,0.1,0c-0.1,0.1-0.3,0.2-0.9,0.4c-0.6,0.2-1.2,0.4-1.9,0.5l-0.1,0
	c-0.6,0.2-1,0.2-1.3,0c-1.1-0.7-1.2-2.3-0.9-3.7c0.2-0.3,0.4-0.7,0.6-1c0,0.7,0.3,1.3,0.8,2C51.2,21.1,52,21.6,53,21.4z M56.3,16.2
	c0.1,0.1,0.2,0.3,0.3,0.4c0.3,0.4,0.5,0.8,0.7,1.3c0.2,0.7,0.1,1.4,0.1,2.2c0,0,0.1,0.1,0.1,0c0.9-1.1,0.1-2.4-0.7-3.4
	C56.6,16.5,56.5,16.3,56.3,16.2C56.3,16.1,56.3,16.1,56.3,16.2z M55.8,17.1c0.4,0.6,0.3,1.1,0.3,1.8c0,0,0,0.1,0.1,0
	c1.1-0.7-0.1-2.1-0.8-3c-0.2-0.2-0.3-0.3-0.4-0.4c0,0,0,0,0,0c0.1,0.1,0.1,0.2,0.2,0.3C55.3,16.2,55.5,16.7,55.8,17.1z M53.9,19.3
	C53.9,19.3,53.9,19.3,53.9,19.3c-0.2-0.6-0.6-0.9-0.8-1.5c-0.2-0.5-0.2-1-0.3-1.5c0,0,0,0,0,0C52.4,17.3,52.9,18.9,53.9,19.3z
	 M53.3,19.8C53.3,19.9,53.4,19.8,53.3,19.8c-0.7-1.1-1.5-2.5-1.6-3.8c0,0,0,0,0,0C51.1,17.3,52.1,19.2,53.3,19.8z M52,10.4
	C52,10.4,52,10.4,52,10.4c-0.4,0-0.7,0.3-0.8,0.7c0,0.1,0.1,0.2,0.1,0.3c0,0,0,0,0,0c0.1,0,0.1,0,0.2,0c0.2,0,0.3,0.1,0.5,0.2
	c0.1-0.1,0.1-0.2,0.2-0.3c0.1-0.2,0.3-0.3,0.5-0.4c-0.1-0.1-0.1-0.2-0.2-0.3C52.4,10.5,52.2,10.4,52,10.4z M53.9,13.4
	C53.9,13.4,53.9,13.4,53.9,13.4C53.9,13.4,53.9,13.4,53.9,13.4c-0.2,0.1-0.4,0.1-0.6,0.1c-0.1,0-0.1,0-0.2,0c0,0-0.1,0-0.1,0
	c-0.1,0-0.2-0.1-0.3-0.1c0,0,0,0,0,0c0,0-0.1,0-0.1,0c0,0,0,0,0,0c0,0,0,0.1-0.1,0.1c0,0,0,0,0,0c0,0,0.1,0.1,0.1,0.1
	c0.1,0.1,0.1,0.2,0.2,0.3c0,0,0,0,0,0c0,0.1,0.1,0.2,0.1,0.4c0.1,0,0.2,0.1,0.3,0.1c0,0,0.1,0,0.1,0c0.2,0,0.4-0.1,0.5-0.3
	c0,0,0,0,0-0.1c0.1-0.1,0.2-0.3,0.2-0.5C53.9,13.6,53.9,13.5,53.9,13.4C53.9,13.5,53.9,13.5,53.9,13.4
	C53.9,13.4,53.9,13.4,53.9,13.4z M54.1,12.1c0-0.1,0-0.2-0.1-0.3c0-0.1-0.1-0.2-0.1-0.3c0,0,0,0,0-0.1c-0.1-0.1-0.3-0.2-0.5-0.2
	c0,0,0,0,0,0c0,0-0.1,0-0.1,0c-0.1,0-0.1,0-0.2,0c-0.1,0-0.2,0.1-0.3,0.2c0,0,0,0,0,0c-0.1,0.1-0.2,0.2-0.2,0.3c0,0.1,0,0.1,0,0.2
	c0,0,0.1,0.1,0.1,0.2c0,0,0,0,0,0c0,0,0,0.1,0,0.1c0,0,0,0,0,0c0,0,0,0.1,0,0.1c0,0,0,0,0,0c0,0,0,0.1,0,0.1c0,0.1,0,0.1,0,0.2
	c0,0,0.1,0.1,0.1,0.1c0,0,0.1,0.1,0.1,0.1c0,0,0.1,0,0.1,0c0.1,0,0.1,0,0.2,0c0,0,0.1,0,0.1,0c0.1,0,0.1,0,0.2,0
	c0.1,0,0.2-0.1,0.3-0.2c0,0,0,0,0,0c0.1-0.1,0.1-0.1,0.2-0.2C54.1,12.4,54.1,12.3,54.1,12.1z M47.9,30.4c0.9-0.9,2.1-1.4,3.5-1.4
	h1.6v6.7c0,0.2,0.1,0.2,0.2,0.2c0.1,0,0.2,0,0.4-0.1c0.1-0.1,0.4-0.2,0.7-0.4c-0.2,0.3-0.4,0.6-0.8,1c-0.4,0.3-0.7,0.5-1.1,0.5
	c-0.2,0-0.4-0.1-0.7-0.4c-0.3-0.3-0.5-0.6-0.5-1.1v-1c-0.7,0.7-1.4,1.3-1.9,1.8c-0.5,0.4-0.9,0.7-1.3,0.7c-0.4,0-0.8-0.2-1.1-0.7
	c-0.3-0.5-0.5-1.1-0.5-1.9C46.5,32.6,47,31.3,47.9,30.4z M48.2,32.9c0,0.6,0.1,1,0.3,1.3c0.2,0.3,0.5,0.4,0.8,0.4
	c0.3,0,0.6-0.1,0.9-0.3c0.3-0.2,0.7-0.4,1-0.7v-4c-0.9,0-1.6,0.3-2.2,1C48.5,31.2,48.2,32,48.2,32.9z M36.7,29.4
	c-0.3,0.3-0.5,0.6-0.5,1v3.1c0,0.4-0.2,0.8-0.7,1.2c-0.4,0.5-0.8,0.7-1.1,0.7c-0.3,0-0.5-0.1-0.6-0.3c-0.1-0.2-0.1-0.5-0.1-0.9v-0.5
	v-3.4c0-0.3-0.1-0.6-0.2-0.9c-0.1-0.3-0.3-0.4-0.7-0.4c-0.4,0-0.7,0.1-1,0.3c-0.3,0.2-0.6,0.5-0.9,1c0.3-0.2,0.6-0.3,0.8-0.3
	c0.2,0,0.3,0.1,0.3,0.2c0,0.1,0.1,0.3,0.1,0.5v4.2c0,0.6,0.1,1.1,0.3,1.5c0.2,0.4,0.5,0.6,0.9,0.6c0.5,0,1-0.2,1.5-0.5
	c0.5-0.4,1-0.8,1.6-1.4v0.8c0,0.4,0.1,0.7,0.2,0.9c0.1,0.2,0.4,0.3,0.7,0.3c0.5,0,0.9-0.3,1.5-0.8c0.5-0.5,0.9-1,1.2-1.4
	c-0.3,0.3-0.6,0.5-0.9,0.7c-0.2,0.1-0.4,0.2-0.6,0.2c-0.1,0-0.2,0-0.3-0.1c-0.1,0-0.1-0.1-0.1-0.1V29C37.4,29,37,29.1,36.7,29.4z
	 M84,39.4c0.4-0.4,0.9-0.7,1.5-0.8l0,0.2l-0.2,0c-0.4,0.1-0.7,0.3-0.9,0.6c-0.2,0.3-0.4,0.6-0.4,1c0.2-0.1,0.3-0.2,0.5-0.3
	c0.2-0.1,0.3-0.1,0.5-0.1c0.3,0,0.6,0.1,0.8,0.3c0.2,0.2,0.3,0.5,0.3,0.9c0,0.2,0,0.4-0.1,0.5c-0.1,0.2-0.2,0.3-0.3,0.4
	c-0.1,0.1-0.3,0.2-0.4,0.3c-0.2,0.1-0.3,0.1-0.5,0.1c-0.2,0-0.4,0-0.5-0.1c-0.2-0.1-0.3-0.2-0.4-0.3c-0.1-0.1-0.2-0.3-0.3-0.5
	c-0.1-0.2-0.1-0.4-0.1-0.7C83.5,40.4,83.7,39.8,84,39.4z M84,40.8c0,0.1,0,0.1,0,0.2c0,0.4,0.1,0.7,0.2,1c0.1,0.2,0.3,0.4,0.5,0.4
	c0.2,0,0.4-0.1,0.5-0.3c0.1-0.2,0.2-0.4,0.2-0.8c0-0.3-0.1-0.5-0.2-0.7c-0.1-0.2-0.3-0.3-0.5-0.3c-0.1,0-0.3,0-0.4,0.1
	c-0.1,0-0.2,0.1-0.3,0.3C84,40.7,84,40.8,84,40.8z M58,25.9c0.6,0,1.1-0.4,1.5-1.1h-1.6c-0.8,0-1.4,0.3-1.8,0.9
	c-0.5,0.6-0.7,1.3-0.7,2.2v7.5c0,0.5,0.1,0.8,0.2,1.1c0.2,0.3,0.4,0.4,0.8,0.4c0.4,0,0.8-0.2,1.3-0.6c0.5-0.4,0.8-0.9,1.1-1.4
	c-0.3,0.3-0.6,0.5-0.8,0.6c-0.2,0.2-0.4,0.2-0.6,0.2c-0.2,0-0.3-0.1-0.3-0.3v-9.2C57.1,26,57.4,25.9,58,25.9z M48.7,13.5
	c0,0.1,0,0.2,0,0.2c0.1,0.3,0.4,0.6,0.8,0.6c0.1,0,0.2,0,0.3-0.1c0.1,0,0.2-0.1,0.2-0.1c0,0,0-0.1,0-0.1c0-0.1,0.1-0.2,0.2-0.4
	c0-0.1-0.1-0.1-0.1-0.2c0,0,0,0,0-0.1c-0.1-0.1-0.1-0.2-0.1-0.3c0,0,0,0,0,0c0-0.1,0-0.2,0-0.2c0,0,0,0,0,0v0c0,0,0,0,0,0
	c-0.1-0.1-0.2-0.1-0.3-0.1c0,0,0,0,0,0c0,0-0.1,0-0.1,0c0,0-0.1,0-0.1,0c-0.1,0-0.1,0.1-0.2,0.1c-0.1,0.1-0.2,0.2-0.3,0.3
	C48.8,13.3,48.7,13.4,48.7,13.5z M49.9,10.8c-0.4,0-0.7,0.2-0.8,0.6c0,0.1-0.1,0.2-0.1,0.2c0,0.1,0,0.3,0.1,0.4c0,0,0,0.1,0.1,0.1
	c0,0,0.1,0,0.1,0c0.1,0,0.1,0,0.2,0c0.2,0,0.3,0,0.5,0.1c0.1-0.1,0.1-0.2,0.2-0.3c0.1-0.1,0.2-0.3,0.4-0.3c0,0,0.1,0,0.1,0
	c0-0.1-0.1-0.2-0.1-0.3C50.4,11,50.2,10.8,49.9,10.8z M51.1,12c0,0-0.1,0-0.1,0c0,0,0,0,0,0c0,0,0,0-0.1,0c-0.1,0-0.1,0.1-0.2,0.1
	c-0.1,0.1-0.1,0.2-0.2,0.3c0,0,0,0,0,0c0,0.1,0,0.1,0,0.2c0,0,0,0,0,0.1c0,0,0,0,0,0c0,0,0,0.1,0,0.1c0,0,0,0,0,0c0,0,0,0.1,0,0.1
	c0,0,0,0,0,0c0,0.1,0,0.1,0.1,0.2c0,0,0,0,0,0.1c0,0.1,0.1,0.1,0.1,0.1c0,0,0,0,0,0c0,0,0.1,0,0.1,0.1c0,0,0,0,0,0c0,0,0,0,0,0
	c0,0,0,0,0,0c0.1,0.1,0.2,0.1,0.4,0.1c0,0,0,0,0,0c0.1,0,0.1,0,0.2,0c0.1,0,0.1,0,0.2-0.1c0.1,0,0.1-0.1,0.2-0.1
	c0,0,0.1-0.1,0.1-0.1c0,0,0,0,0-0.1c0,0,0,0,0-0.1c0,0,0,0,0,0c0-0.1,0.1-0.1,0.1-0.2c0,0,0-0.1,0-0.1c0,0,0-0.1,0-0.1c0,0,0,0,0,0
	c0,0,0,0,0,0c0,0,0,0,0,0c0-0.1,0-0.2-0.1-0.2c0,0,0,0,0,0c0,0-0.1-0.1-0.1-0.1c0,0,0,0,0,0c-0.1-0.1-0.1-0.1-0.2-0.1
	c-0.1,0-0.2-0.1-0.3-0.1c0,0-0.1,0-0.1,0c0,0,0,0,0,0C51.2,11.9,51.2,12,51.1,12C51.1,12,51.1,12,51.1,12z M52.1,13.9
	C52.1,14,52.1,14,52.1,13.9c-0.1,0.1-0.2,0.1-0.3,0.2c-0.1,0-0.2,0.1-0.3,0.1c-0.1,0-0.1,0-0.2,0c-0.1,0-0.1,0-0.2,0
	c-0.1,0-0.1,0-0.2,0c0,0,0,0-0.1,0c0,0,0,0-0.1,0c0,0,0,0,0,0c0,0-0.1,0-0.1,0c0,0,0,0,0,0c0,0.1,0,0.1-0.1,0.2c0,0,0,0.1,0,0.1
	c0,0,0,0,0,0c0,0.2,0.1,0.3,0.1,0.4c0,0,0,0.1,0.1,0.1c0.1,0.1,0.3,0.2,0.4,0.2c0.1,0,0.1,0,0.2,0c0.4,0,0.7-0.2,0.8-0.6
	c0-0.1,0-0.1,0-0.2c0,0,0-0.1,0-0.1c0,0,0-0.1,0-0.1c0,0,0-0.1,0-0.1C52.2,14.1,52.2,14,52.1,13.9z M42.5,46.2
	c2.3,0.2,4.6,0.5,6.9,0.9c1.1,0.2,2.3,0.4,3.4,0.7c0.9,0.2,1.8,0.5,2.7,0.8c1.3-0.4,2.6-0.8,3.9-1.1c2.3-0.5,4.6-0.8,6.9-1
	c2.3-0.1,4.6-0.3,6.9-0.3c2.3,0,4.6,0,6.9,0.2c1.2,0.1,2.3,0.2,3.4,0.5c1.1,0.2,2.3,0.5,3.4,1c0.5,0.2,1.1,0.5,1.5,0.9
	c0.5,0.4,0.9,0.8,1.2,1.3c0.2,0.3,0.3,0.5,0.4,0.8c0.1,0.3,0.1,0.6,0.1,1c0,0.3-0.2,0.6-0.3,0.9c-0.2,0.3-0.4,0.5-0.6,0.7
	c-0.5,0.4-1,0.7-1.5,1c-0.5,0.3-1.1,0.5-1.6,0.7c-1.1,0.4-2.2,0.6-3.4,0.8c-2.3,0.4-4.6,0.5-6.9,0.5c-1.3,0-2.7-0.1-4-0.2
	c-0.3,0.1-0.6,0.2-0.9,0.3c-2.2,0.8-4.5,1.4-6.8,1.8c-2.3,0.4-4.6,0.7-6.9,0.9c-2.3,0.1-4.6,0.2-7,0.1c-1.2,0-2.3-0.1-3.5-0.3
	c-0.6-0.1-1.2-0.2-1.8-0.4c-0.6-0.2-1.2-0.4-1.7-0.8c-0.3-0.2-0.5-0.4-0.7-0.8c-0.2-0.3-0.3-0.8-0.2-1.2c0-0.2,0.1-0.3,0.2-0.5
	c-1-0.1-2.1-0.2-3.1-0.5c-0.6-0.1-1.1-0.3-1.7-0.5c-0.3-0.1-0.6-0.2-0.8-0.4c-0.3-0.1-0.5-0.3-0.8-0.6c-0.1-0.1-0.2-0.3-0.3-0.5
	c-0.1-0.2,0-0.4,0-0.6c0.2-0.4,0.4-0.6,0.7-0.7c0.5-0.3,1.1-0.5,1.7-0.7c1.1-0.3,2.3-0.4,3.5-0.4c1.2,0,2.3,0.1,3.5,0.2
	c1.1,0.1,2.1,0.3,3.2,0.4c1.4-0.7,2.9-1.4,4.4-2c0.5-0.2,1-0.4,1.5-0.6c-0.5-0.2-1.1-0.3-1.7-0.4c-1.1-0.3-2.2-0.5-3.4-0.7
	c-2.3-0.4-4.5-0.6-6.8-0.7C41.3,47,40.2,47,39.1,47c-1.1,0-2.3,0-3.4,0c-2.3,0-4.6,0.1-6.8,0.4c-2.3,0.2-4.5,0.6-6.6,1.3
	c-0.5,0.2-1,0.4-1.5,0.6c-0.2,0.1-0.5,0.2-0.7,0.4c-0.2,0.1-0.4,0.3-0.5,0.4c0,0,0,0,0,0c0,0,0,0,0,0c0.1,0,0.2,0.1,0.3,0.1
	c0.4,0.2,1,0.3,1.5,0.3c0.5,0,1.1,0,1.7,0c0.6,0,1.1,0,1.7,0c1.1,0,2.3-0.1,3.4-0.1h0c0.4,0,0.8,0.3,0.8,0.7c0,0.4-0.3,0.8-0.7,0.8
	c0,0,0,0,0,0c-1.2,0-2.3,0-3.5,0c-0.6,0-1.2,0-1.7,0c-0.6,0-1.2,0-1.8-0.1c-0.2,0-0.3,0-0.5-0.1c-0.2,0-0.3-0.1-0.5-0.1
	c-0.3-0.1-0.6-0.2-0.9-0.3c-0.2-0.1-0.3-0.2-0.5-0.3c-0.2-0.1-0.3-0.3-0.5-0.5c-0.1-0.1-0.1-0.3-0.2-0.5c0-0.2,0-0.3,0-0.5
	c0.1-0.3,0.2-0.5,0.4-0.6c0.3-0.3,0.6-0.5,0.8-0.6c0.3-0.2,0.6-0.3,0.8-0.4c0.6-0.2,1.1-0.4,1.7-0.6c2.3-0.7,4.6-1.1,6.9-1.3
	c2.3-0.2,4.6-0.3,6.9-0.3c1.2,0,2.3,0,3.5,0C40.2,46.1,41.4,46.1,42.5,46.2z M47,53.3c-0.9,0.6-1.8,1.1-2.7,1.8
	c1.8,0,3.6-0.1,5.4-0.4c1.1-0.2,2.2-0.4,3.3-0.7c0.8-0.2,1.7-0.5,2.5-0.8c-0.1,0-0.1,0-0.2,0c-2.1-0.4-4.1-0.8-6.2-1.1
	C48.4,52.5,47.7,52.9,47,53.3z M43.5,54.4c0.9-0.7,1.9-1.4,2.9-1.9c0.4-0.2,0.8-0.4,1.2-0.6c-0.8-0.1-1.7-0.2-2.5-0.3
	c-1.1-0.1-2.3-0.2-3.4-0.2c-1.1,0-2.3,0.1-3.4,0.4c-0.5,0.1-1.1,0.3-1.5,0.6c-0.2,0.1-0.4,0.3-0.5,0.5c0,0.1,0,0.2,0,0.3
	c0,0.1,0.1,0.2,0.2,0.3c0.2,0.2,0.4,0.3,0.6,0.4c0.2,0.1,0.5,0.2,0.8,0.3c0.5,0.2,1.1,0.3,1.6,0.4c1.1,0.2,2.2,0.4,3.3,0.5
	C43.1,54.8,43.3,54.6,43.5,54.4z M68.5,55.9c-0.4-0.1-0.9-0.1-1.3-0.2c-0.6-0.1-1.1-0.2-1.7-0.4l-3.4-0.7c-1.8-0.4-3.6-0.8-5.4-1.1
	c-0.1,0-0.1,0.1-0.2,0.1c-1.1,0.5-2.2,0.8-3.3,1.1c-1.1,0.3-2.3,0.5-3.4,0.7c-2,0.3-4.1,0.4-6.2,0.3c-0.5,0.6-0.4,1.1,0.2,1.5
	c0.4,0.3,0.9,0.5,1.4,0.6c0.5,0.1,1.1,0.2,1.6,0.3c1.1,0.2,2.2,0.2,3.4,0.2c2.3,0,4.6-0.1,6.8-0.3c2.3-0.2,4.5-0.5,6.7-1
	C65.4,56.8,67,56.4,68.5,55.9z M56.7,49c0.4,0.2,0.7,0.3,1.1,0.5c0.3,0.2,0.5,0.3,0.8,0.5c0.1,0.1,0.2,0.2,0.3,0.4
	c0.1,0.1,0.2,0.3,0.3,0.5c0,0,0,0.1,0,0.2c0,0,0,0,0,0.1c0,0,0,0.1,0,0.1c0,0.1,0,0.2-0.1,0.3c-0.1,0.2-0.2,0.3-0.3,0.5
	c-0.2,0.3-0.5,0.5-0.7,0.6c-0.2,0.2-0.5,0.3-0.7,0.4c1.6,0.3,3.2,0.7,4.8,1l3.4,0.7c0.6,0.1,1.1,0.3,1.7,0.4
	c0.6,0.1,1.1,0.2,1.7,0.3c0.1,0,0.3,0,0.4,0.1c0.3-0.1,0.7-0.2,1-0.4c1-0.4,2.1-0.9,3-1.4c0.5-0.3,0.9-0.6,1.4-0.9
	c0.2-0.2,0.4-0.3,0.6-0.5c0.1-0.1,0.2-0.2,0.3-0.3l0.1-0.1c0,0,0.1-0.1,0.1-0.1c0.3-0.4,0.9-0.4,1.2-0.1c0.4,0.3,0.4,0.9,0.1,1.2
	c0,0,0,0,0,0l0,0c-0.1,0.1-0.1,0.1-0.2,0.2l-0.2,0.2c-0.1,0.1-0.2,0.2-0.4,0.3c-0.2,0.2-0.5,0.4-0.7,0.5c-0.5,0.3-1,0.6-1.6,0.9
	c-0.5,0.3-1,0.5-1.4,0.7c1,0.1,2,0.1,3.1,0.1c2.3,0,4.6-0.2,6.8-0.6c1.1-0.2,2.2-0.5,3.3-0.8c0.5-0.2,1.1-0.4,1.6-0.6
	c0.5-0.2,1-0.5,1.4-0.9c0.4-0.4,0.7-0.8,0.8-1.3c0-0.2,0-0.5-0.1-0.7c-0.1-0.3-0.2-0.5-0.3-0.7c-0.3-0.5-0.7-0.8-1.1-1.2
	c-0.4-0.3-0.9-0.6-1.4-0.8c-1-0.4-2.1-0.7-3.2-0.9c-1.1-0.2-2.3-0.3-3.4-0.4c-2.3-0.2-4.6-0.2-6.9-0.1c-2.3,0.1-4.6,0.2-6.9,0.3
	c-2.3,0.1-4.5,0.5-6.8,1C58.6,48.5,57.7,48.7,56.7,49z M53.1,50.3c-1.1,0.4-2.1,0.9-3.2,1.4c1.9,0.3,3.7,0.6,5.5,1
	c0.3,0.1,0.6,0.1,0.9,0.2c0.5-0.2,1-0.5,1.4-0.8c0.2-0.2,0.4-0.3,0.6-0.5c0.1-0.1,0.1-0.2,0.2-0.3c0,0,0-0.1,0-0.1c0,0,0,0,0,0
	c0,0,0,0,0,0c0,0,0,0,0,0c0-0.2-0.2-0.3-0.4-0.5c-0.2-0.2-0.4-0.3-0.7-0.4c-0.5-0.3-1-0.5-1.5-0.7c-0.1,0-0.2-0.1-0.3-0.1
	C54.8,49.7,53.9,50,53.1,50.3z M90.9,17.8c-4.9-2.7-10.5-4.7-16.7-6.2c-0.1,0.2-0.1,0.3-0.2,0.5c6.1,1.4,11.8,3.5,16.6,6.1
	c9.4,5.1,14.5,11.9,14.5,18.9c0,7-5.2,13.8-14.5,18.9c-9.7,5.4-22.7,8.3-36.6,8.3c-13.8,0-26.8-3-36.6-8.3C8.2,50.9,3,44.2,3,37.2
	c0-7,5.2-13.8,14.5-18.9c6-3.3,13.2-5.7,21.1-7c0,0,0,0,0,0c0.5-0.3,0.9-0.4,1.4-0.5l0.5-0.2c0.3-0.1,0.6-0.2,1-0.3
	c-9.1,1.2-17.5,3.8-24.3,7.5C7.7,23,2.5,29.9,2.5,37.2c0,7.2,5.2,14.1,14.8,19.4c9.8,5.4,22.9,8.4,36.8,8.4c13.9,0,27-3,36.8-8.4
	c9.5-5.2,14.8-12.1,14.8-19.4C105.7,29.9,100.4,23,90.9,17.8z M64.3,17.7c0.2,0,0.5,0.1,0.7,0.1c1.4,0.2,2.6,0.3,3.8,1
	c0.7,0.5,1.6,1.5,1.8,2.3c0.1,0.5-0.2,0.9-1.2,1.4c-0.2,0.1-0.4,0.2-0.6,0.3c-0.8,0.4-1.5,0.9-2.3,0.9c-0.9,0-1.7-0.2-2.2-0.5
	c-1.2-0.7-1.9-2.3-2.2-3.5c-0.1-0.4-0.2-0.7-0.3-1.1c-0.1-0.4-0.2-0.7-0.3-1C62.3,17.6,63.3,17.6,64.3,17.7z M62.8,18
	C62.8,18,62.7,18,62.8,18c0.3,0.5,0.6,0.9,0.9,1.2c-0.4,0.5-0.5,1.1-0.3,1.7c0.2,0.8,0.7,1.4,1.4,1.8c0,0,0,0,0,0
	c-0.9-0.6-1.3-2.3-0.7-3.3c0.3,0.3,0.7,0.5,1.2,0.7c0.4,0.2,0.8,0.2,1.3,0.3c0,0.4,0.5,0.8,0.8,1.1c0.4,0.4,0.8,0.9,1.4,0.9
	c0,0,0,0,0,0c-0.5,0-1.2-0.8-1.4-1.2c-0.1-0.2-0.2-0.4-0.2-0.6c1.1,0.1,2.3,0.2,3.2,1c0,0,0,0,0,0c-0.8-1-1.7-1.2-2.9-1.4
	c-0.6-0.1-1.2-0.3-1.7-0.5c0.6-0.4,1.4-0.6,2.1-0.7c0,0,0,0,0,0c-1,0-1.9-0.2-2.7,0.3c0,0-0.1,0.1-0.1,0.1
	C64.2,18.9,63.5,18.5,62.8,18z M81.3,43.5l1.9-3.7v-0.2h-2.5v1.1h0.2c0-0.1,0.1-0.3,0.1-0.4c0-0.1,0.1-0.2,0.1-0.2
	c0.1,0,0.2,0,0.2-0.1c0.1,0,0.2,0,0.4,0h1.1l-1.8,3.4H81.3z M41,11.6c0.5-0.2,1.1-0.3,1.6-0.4c0.3,0,0.6,0,0.9,0c0.1,0,0.2,0,0.3,0
	c0.2,0.2,0.5,0.4,0.8,0.6c-2.2-0.2-4.5,1.2-4.9,3.8c0,0,0,0,0,0c1-3.1,4-3.6,6.7-2.8c0.3,0.1,0.6,0.2,0.9,0.3l0.3,0.1
	c0.2,0.1,0.4,0.1,0.6,0.2c0,0.8,0.6,1.4,1.4,1.4c0,0,0,0,0,0c0.2,0,0.4,0,0.5-0.1c0,0,0,0.1,0,0.1L50,15.1c-0.2,0.5-0.3,1.1-0.6,1.5
	c-0.1,0.3-0.3,0.5-0.4,0.8c-0.3,0.5-0.5,1-0.9,1.4c-0.1,0.2-0.3,0.3-0.4,0.5c-0.6,0.7-1.5,1.1-2.4,1.3L45,20.7
	c-0.5,0.1-1,0.2-1.4,0.2c-0.4,0-0.7-0.1-1.2-0.2c-0.6-0.2-1.1-0.5-1.3-0.9c0,0,0-0.1,0-0.1c0.1,0.1,0.2,0.2,0.3,0.2
	c0.4,0.2,0.8,0.3,1.2,0.1c0.5-0.2,0.8-0.8,0.9-1.5c0.1-0.7,0-1.4-0.4-1.8c-0.2-0.2-0.6-0.5-1.2-0.6c-0.6,0-1.3,0.2-1.8,0.7
	c-0.1,0.1-0.2,0.2-0.3,0.3c0,0.1-0.1,0.2-0.1,0.2c-0.1,0-0.3-0.1-0.8-0.8l-0.1-0.1c-0.4-0.5-0.7-1.2-0.7-1.7
	c-0.1-1.1,0.4-1.9,1.3-2.5c0.2-0.1,0.4-0.2,0.6-0.3c0.2-0.1,0.4-0.1,0.5-0.2L41,11.6z M46.8,18.1c-0.9,0.9-1.6,1.4-2.9,1.1
	c0,0,0,0,0,0c1.2,0.7,2.1,0.4,3.1-0.5c0.8-0.8,2.1-1.9,1.7-3.1c0-0.1-0.1-0.1-0.1,0C48.6,16.7,47.5,17.4,46.8,18.1z M43.8,18
	C43.7,18,43.8,18.1,43.8,18c1-0.1,1.8-0.4,2.6-1.1c0.8-0.6,1.1-1.3,1.4-2.3c0,0,0-0.1-0.1,0C46.7,16.1,45.4,17.5,43.8,18z
	 M40.5,15.2C40.5,15.2,40.5,15.2,40.5,15.2c1.1-0.4,2-1,3.1-1.1c1.2-0.2,2.2,0,3.3,0.4c0,0,0.1,0,0-0.1
	C45.3,12.6,41.8,13.3,40.5,15.2z M43.6,9.2c-0.3-0.7-0.5-1.7-0.5-2.6c0-0.8,0.1-1.7,0.5-2.3C44,3.7,45,3.7,45.3,3.7c0,0,0,0,0,0
	l0.2,0c0.1,0,0.2,0,0.3,0c0,0.2,0,0.6,0.4,0.8c0.3,0.2,0.7,0.3,1.1,0.2c0.5-0.1,0.9-0.4,1.1-0.8c0.1-0.1,0.1-0.3,0.2-0.4
	c0.2-0.4,0.2-0.5,0.5-0.7c0.5-0.3,1.1-0.4,1.7-0.6c1-0.3,2,0,2.7,0.7c0.6,0.7,0.9,2,0.9,2.9c0,0.3,0,0.6,0,1c0,0.4-0.1,0.8-0.2,1.2
	c-0.1,0.2-0.1,0.5-0.2,0.7c-0.2,0.5-0.4,1.1-0.7,1.7c-0.1-0.2-0.2-0.3-0.4-0.4c-0.2-0.1-0.3-0.2-0.5-0.2c-0.1,0-0.2,0-0.3,0
	c-0.4,0-0.7,0.2-1,0.4c-0.4-1.7-1.6-3.1-3-4.3c0,0,0,0,0,0c1.1,1.4,2,2.9,2.6,4.5c-0.2-0.1-0.4-0.2-0.7-0.2c-0.6,0-1.2,0.4-1.3,1
	c0,0.1-0.1,0.3-0.1,0.4c0,0.1,0,0.1,0,0.2c0,0.2,0.1,0.4,0.2,0.6c0,0-0.1,0-0.1,0.1c0,0,0,0,0,0c0,0-0.1,0-0.1-0.1
	c-0.1,0-0.2-0.1-0.3-0.1c-0.1,0-0.1-0.1-0.2-0.1l-0.3-0.1c-0.2-0.1-0.3-0.1-0.5-0.2c-0.6-0.2-1.1-0.5-1.6-0.8c0,0-0.1,0-0.1-0.1
	c-0.1,0-0.1-0.1-0.1-0.1c0,0,0,0-0.1-0.1c-0.2-0.2-0.4-0.3-0.6-0.5c-0.1-0.1-0.2-0.2-0.3-0.3c-0.1-0.1-0.1-0.1-0.2-0.2
	C43.9,9.7,43.7,9.5,43.6,9.2z M50.4,3.5c1.8,0.8,3.6,2,3.5,4c0,0.3-0.1,0.7-0.2,1c0,0.1,0.1,0.1,0.1,0c0.3-0.5,0.4-1,0.4-1.5
	C54.2,5.2,52.1,3.7,50.4,3.5C50.4,3.4,50.4,3.4,50.4,3.5z M49.4,4.7c0.8,0.3,1.7,0.6,2.3,1.2c0.7,0.7,0.6,1.8,0.6,2.7
	c0,0.1,0.1,0.1,0.1,0c0.4-0.9,0.4-2-0.2-2.8C51.6,4.9,50.3,4.8,49.4,4.7C49.4,4.7,49.4,4.7,49.4,4.7z M48.4,10.7
	c0.1,0,0.1-0.1,0.1-0.1c-1.1-1.4-3.5-3.3-2.1-5.3c0,0,0,0,0,0C44.4,6.9,46.5,10.2,48.4,10.7z M46,10.3C46,10.3,46.1,10.2,46,10.3
	c-1.3-1.5-2.2-4-0.5-5.5c0,0,0,0,0,0C43.1,6.1,43.9,9,46,10.3z M62.6,10.2c0,0,0.1-0.1,0.2-0.1c0.1-0.1,0.3-0.2,0.4-0.2
	c-0.3,0-0.5-0.1-0.8-0.1C62.5,10,62.6,10.2,62.6,10.2z M54.2,11.1c0.3-0.7,0.6-1.3,0.8-1.9c0.2-0.6,0.4-1.2,0.4-1.8
	c1.4-1.4,3.3-2.5,4.8-2c1,0.3,1.9,1.1,2.2,2c0,0.2,0.2,0.5,0.1,0.6c0,0-0.1,0-0.2,0.1c-0.2,0-0.5,0.1-0.7,0.4
	c-0.3,0.3-0.5,0.7-0.5,1.2c0,0.2,0,0.4,0.1,0.6c0,0,0,0,0,0c0.1,0.4,0.4,0.9,0.8,1.1c0.4,0.2,0.7,0.1,1,0c0.1-0.1,0.3-0.2,0.4-0.2
	c0,0,0.1,0,0.1-0.1c0,0,0,0,0,0c0,0,0,0,0,0c0,0.1,0,0.2,0,0.4c0,0.1,0,0.2,0,0.2c0,0.2,0,0.4,0,0.5c0.1,0.4,0.2,0.7,0.3,1.1
	c0.2,0.7,0.4,1.4,0.3,1.9c-0.1,0.7-1,1-1.3,1.1c-1,0.2-2.3,0.2-3.7,0c-0.1,0-0.2,0-0.3-0.1c-0.4-0.4-0.9-0.7-1.4-0.9
	c-0.2-0.1-0.3-0.2-0.5-0.3c-0.4-0.2-0.7-0.5-1.1-0.8c-0.5-0.3-0.9-0.7-1.5-1c0,0,0,0,0,0c0,0,0,0,0-0.1c0.2-0.2,0.3-0.5,0.3-0.9
	c0-0.2,0-0.3-0.1-0.4c0.6-0.2,1.3-0.3,2-0.4c1.1-0.1,2.2-0.1,3.2-0.3c0.1,0,0.1-0.1,0-0.1c-1.6-0.9-3.7-0.5-5.4,0.4
	C54.4,11.2,54.3,11.1,54.2,11.1z M60.1,9.5C60.1,9.6,60.2,9.5,60.1,9.5c0.4-0.4,0.1-1.1-0.4-1.3c-0.6-0.3-1.2,0-1.7,0.4
	c0,0,0,0.1,0,0c0.5-0.3,1-0.5,1.5-0.1C60,8.7,60.1,9.1,60.1,9.5z M58.9,14.5c-0.1,0-0.2,0.1-0.1,0.2c0.8,0.7,2.2,1.3,3.2,0.8
	c1.1-0.5,1.1-2.2,0.6-3.1c0-0.1-0.2,0-0.2,0c0.1,1,0.2,2.5-1,2.8C60.6,15.3,59.8,14.7,58.9,14.5z M60.9,10.9
	c-0.1,0.7-0.1,1.5-0.7,2.1c-0.7,0.6-1.4,0.4-2.1,0.1c0,0-0.1,0,0,0.1c0.6,0.7,1.6,0.9,2.3,0.3C61.2,12.8,61.4,11.8,60.9,10.9
	C61,10.9,60.9,10.9,60.9,10.9z M56.9,7.8C56.9,7.8,56.9,7.8,56.9,7.8c0.8-0.4,1.7-0.8,2.6-0.5c0.3,0.1,0.8,0.4,1,0.6
	c0.2,0.3,0.3,0.7,0.4,1c0,0,0.1,0,0.1,0c0-1-0.1-1.8-1.1-2.2C58.6,6.3,57.7,7.1,56.9,7.8z M22.4,25c-2.4,0-4.7,0.3-6,1.2
	c-1.2,0.8-1.8,1.9-1.8,3.5c0,1.2,0.4,2.2,1.2,3.1c0.8,0.8,2,1.2,3.5,1.2c-1.4-0.6-2.4-1.3-2.9-2.1c-0.6-0.8-0.9-1.8-0.9-2.8
	c0-1.1,0.4-1.9,1.3-2.6c0.9-0.6,2.6-0.9,5.1-0.9c-0.2,0.2-0.4,0.5-0.6,0.9c-0.1,0.2-0.2,0.5-0.3,0.8c0,0,0,0,0,0l0,0c0,0,0,0,0,0.1
	c-0.3,0.8-0.4,1.6-0.4,2.3v5.1c0,0.5-0.2,1-0.6,1.4c-0.4,0.4-1,0.6-1.6,0.8h6.1c-0.6-0.2-1-0.5-1.3-0.8c-0.2-0.3-0.4-0.7-0.4-1.1
	v-9.3c4.5,0.2,5.6,1.7,5.6,3.1c0,1.2-0.4,2-1.2,2.4c-0.8,0.4-2,0.6-3.6,0.6c0.9,2,2.8,5.5,6.1,8.9c1.2,1.2,5.2,3.6,9.4-0.3
	c-5,2.8-7.2,0.7-8.6-0.7c-1.4-1.4-4.7-6.4-5.1-7.4c1.5-0.2,2.8-0.3,3.9-1.3c0.9-0.8,1.4-1.6,1.4-2.8c0-1.4-1.3-2.1-1.7-2.2
	c-1.3-0.4-3.7-0.8-6.1-0.8v-0.3C22.8,24.7,22.7,24.8,22.4,25z M66,15c0.1-0.7,0.6-1.5,1-2.2l0.1-0.2c0.5-0.9,1.1-1.9,2.1-2.7
	c0.8-0.7,2.1-1.6,3.8-1.7c0.4,0,0.6,0.1,0.8,0.2c0.1,0.1,0.1,0.3,0.1,0.5c0,0.3-0.1,0.7-0.3,1c-0.1,0.2-0.2,0.5-0.2,0.7
	c-0.1,0.3-0.1,0.5-0.2,0.7c-0.1,0.1-0.1,0.3-0.2,0.4c0,0,0,0,0,0.1c-0.1,0.2-0.2,0.4-0.3,0.5c-0.1,0.1-0.2,0.2-0.2,0.3
	c-0.8,0.9-1.9,1.3-3.1,1.7c-0.7,0.3-1.5,0.5-2.2,0.6C66.7,15,66.3,15,66,15z M66.7,14.2C66.7,14.2,66.7,14.2,66.7,14.2
	c0.4-0.4,0.7-0.8,1.1-1.1c0,0.7,1.6,0.8,2,0.6c0,0,0,0,0,0c-0.5,0.1-0.8,0-1.2-0.2c-0.3-0.1-0.4-0.3-0.6-0.5c0.6-0.5,1.2-1,1.9-1.5
	c0,0,0,0.1,0.1,0.1c0.5,0.3,1.1,0.3,1.7,0.1c0.3-0.1,0.5-0.2,0.7-0.4c0.1-0.1,0.2-0.2,0.3-0.3c0,0,0,0,0,0c-0.1,0.1-0.3,0.2-0.5,0.3
	c-0.3,0.1-0.7,0.2-1.1,0.1c-0.3,0-0.6-0.1-0.8-0.2c0.9-0.6,2-1.1,2.8-1.8c0,0,0-0.1,0-0.1c-1.6,0.1-3,1.1-4.2,2.3c0-0.1,0-0.2,0-0.3
	c0.1-0.5,0.2-0.9,0.4-1.3c0,0,0,0,0,0c-0.3,0.3-0.6,0.6-0.8,1c-0.1,0.3-0.2,0.7-0.1,0.9C67.8,12.7,67.2,13.5,66.7,14.2z M66.1,10.7
	c0.1-0.2,0.3-0.3,0.4-0.5c-0.7-0.1-1.5-0.2-2.2-0.2c0.2,0.1,0.3,0.3,0.3,0.6C65.2,10.6,65.7,10.6,66.1,10.7z M3.6,37.2
	c0,6.8,5,13.4,14.2,18.4c9.7,5.3,22.5,8.2,36.3,8.2c13.8,0,26.6-2.9,36.3-8.2c9.2-5,14.2-11.6,14.2-18.4c0-6.8-5-13.4-14.2-18.4
	c-4.8-2.7-10.4-4.7-16.6-6.1c-0.1,0.1-0.1,0.2-0.2,0.3c6.1,1.4,11.8,3.4,16.6,6.1c9.1,5,14,11.4,14,18.1c0,6.7-5,13.1-14,18.1
	c-9.6,5.3-22.4,8.2-36.1,8.2c-13.7,0-26.5-2.9-36.1-8.2c-9.1-5-14-11.4-14-18.1c0-6.7,5-13.1,14-18.1c5.6-3.1,12.2-5.3,19.5-6.7
	c0.1-0.2,0.2-0.3,0.3-0.4c-7.5,1.4-14.3,3.7-20,6.8C8.6,23.8,3.6,30.3,3.6,37.2z M65.5,11.5c0.1-0.1,0.1-0.2,0.2-0.3
	c-0.3,0-0.6-0.1-0.9-0.1c0,0.1,0,0.2,0,0.3C65.1,11.5,65.3,11.5,65.5,11.5z"/>
</svg>
